<?xml version="1.0" encoding="utf-8" standalone="no"?>
<!DOCTYPE svg PUBLIC "-//W3C//DTD SVG 1.1//EN"
  "http://www.w3.org/Graphics/SVG/1.1/DTD/svg11.dtd">
<svg xmlns:xlink="http://www.w3.org/1999/xlink" width="1088.39952pt" height="368.39952pt" viewBox="0 0 1088.39952 368.39952" xmlns="http://www.w3.org/2000/svg" version="1.1">
 <metadata>
  <rdf:RDF xmlns:dc="http://purl.org/dc/elements/1.1/" xmlns:cc="http://creativecommons.org/ns#" xmlns:rdf="http://www.w3.org/1999/02/22-rdf-syntax-ns#">
   <cc:Work>
    <dc:type rdf:resource="http://purl.org/dc/dcmitype/StillImage"/>
    <dc:date>2026-02-27T11:24:03.688430</dc:date>
    <dc:format>image/svg+xml</dc:format>
    <dc:creator>
     <cc:Agent>
      <dc:title>Matplotlib v3.10.8, https://matplotlib.org/</dc:title>
     </cc:Agent>
    </dc:creator>
   </cc:Work>
  </rdf:RDF>
 </metadata>
 <defs>
  <style type="text/css">*{stroke-linejoin: round; stroke-linecap: butt}</style>
 </defs>
 <g id="figure_1">
  <g id="patch_1">
   <path d="M 0 368.39952 
L 1088.39952 368.39952 
L 1088.39952 0 
L 0 0 
z
" style="fill: #ffffff"/>
  </g>
  <g id="axes_1">
   <g id="patch_2">
    <path d="M 45.208594 318.301707 
L 351.966767 318.301707 
L 351.966767 28.85325 
L 45.208594 28.85325 
z
" style="fill: #ffffff"/>
   </g>
   <g id="matplotlib.axis_1">
    <g id="xtick_1">
     <g id="line2d_1">
      <defs>
       <path id="mb54d08c8be" d="M 0 0 
L 0 6.5 
" style="stroke: #000000; stroke-width: 2.2"/>
      </defs>
      <g>
       <use xlink:href="#mb54d08c8be" x="45.208594" y="318.301707" style="stroke: #000000; stroke-width: 2.2"/>
      </g>
     </g>
     <g id="text_1">
      <!-- 0.0 -->
      <g transform="translate(36.173594 337.722645) scale(0.13 -0.13)">
       <defs>
        <path id="LiberationSans-30" d="M 3309 2203 
Q 3309 1100 2920 518 
Q 2531 -63 1772 -63 
Q 1013 -63 631 515 
Q 250 1094 250 2203 
Q 250 3338 620 3903 
Q 991 4469 1791 4469 
Q 2569 4469 2939 3897 
Q 3309 3325 3309 2203 
z
M 2738 2203 
Q 2738 3156 2517 3584 
Q 2297 4013 1791 4013 
Q 1272 4013 1045 3591 
Q 819 3169 819 2203 
Q 819 1266 1048 831 
Q 1278 397 1778 397 
Q 2275 397 2506 840 
Q 2738 1284 2738 2203 
z
" transform="scale(0.015625)"/>
        <path id="LiberationSans-2e" d="M 584 0 
L 584 684 
L 1194 684 
L 1194 0 
L 584 0 
z
" transform="scale(0.015625)"/>
       </defs>
       <use xlink:href="#LiberationSans-30"/>
       <use xlink:href="#LiberationSans-2e" transform="translate(55.615234 0)"/>
       <use xlink:href="#LiberationSans-30" transform="translate(83.398438 0)"/>
      </g>
     </g>
    </g>
    <g id="xtick_2">
     <g id="line2d_2">
      <g>
       <use xlink:href="#mb54d08c8be" x="122.208718" y="318.301707" style="stroke: #000000; stroke-width: 2.2"/>
      </g>
     </g>
     <g id="text_2">
      <!-- 0.2 -->
      <g transform="translate(113.173718 337.722645) scale(0.13 -0.13)">
       <defs>
        <path id="LiberationSans-32" d="M 322 0 
L 322 397 
Q 481 763 711 1042 
Q 941 1322 1194 1548 
Q 1447 1775 1695 1969 
Q 1944 2163 2144 2356 
Q 2344 2550 2467 2762 
Q 2591 2975 2591 3244 
Q 2591 3606 2378 3806 
Q 2166 4006 1788 4006 
Q 1428 4006 1195 3811 
Q 963 3616 922 3263 
L 347 3316 
Q 409 3844 795 4156 
Q 1181 4469 1788 4469 
Q 2453 4469 2811 4155 
Q 3169 3841 3169 3263 
Q 3169 3006 3051 2753 
Q 2934 2500 2703 2247 
Q 2472 1994 1819 1463 
Q 1459 1169 1246 933 
Q 1034 697 941 478 
L 3238 478 
L 3238 0 
L 322 0 
z
" transform="scale(0.015625)"/>
       </defs>
       <use xlink:href="#LiberationSans-30"/>
       <use xlink:href="#LiberationSans-2e" transform="translate(55.615234 0)"/>
       <use xlink:href="#LiberationSans-32" transform="translate(83.398438 0)"/>
      </g>
     </g>
    </g>
    <g id="xtick_3">
     <g id="line2d_3">
      <g>
       <use xlink:href="#mb54d08c8be" x="199.208841" y="318.301707" style="stroke: #000000; stroke-width: 2.2"/>
      </g>
     </g>
     <g id="text_3">
      <!-- 0.4 -->
      <g transform="translate(190.173841 337.722645) scale(0.13 -0.13)">
       <defs>
        <path id="LiberationSans-34" d="M 2753 997 
L 2753 0 
L 2222 0 
L 2222 997 
L 147 997 
L 147 1434 
L 2163 4403 
L 2753 4403 
L 2753 1441 
L 3372 1441 
L 3372 997 
L 2753 997 
z
M 2222 3769 
Q 2216 3750 2134 3603 
Q 2053 3456 2013 3397 
L 884 1734 
L 716 1503 
L 666 1441 
L 2222 1441 
L 2222 3769 
z
" transform="scale(0.015625)"/>
       </defs>
       <use xlink:href="#LiberationSans-30"/>
       <use xlink:href="#LiberationSans-2e" transform="translate(55.615234 0)"/>
       <use xlink:href="#LiberationSans-34" transform="translate(83.398438 0)"/>
      </g>
     </g>
    </g>
    <g id="xtick_4">
     <g id="line2d_4">
      <g>
       <use xlink:href="#mb54d08c8be" x="276.208965" y="318.301707" style="stroke: #000000; stroke-width: 2.2"/>
      </g>
     </g>
     <g id="text_4">
      <!-- 0.6 -->
      <g transform="translate(267.173965 337.722645) scale(0.13 -0.13)">
       <defs>
        <path id="LiberationSans-36" d="M 3278 1441 
Q 3278 744 2900 340 
Q 2522 -63 1856 -63 
Q 1113 -63 719 490 
Q 325 1044 325 2100 
Q 325 3244 734 3856 
Q 1144 4469 1900 4469 
Q 2897 4469 3156 3572 
L 2619 3475 
Q 2453 4013 1894 4013 
Q 1413 4013 1148 3564 
Q 884 3116 884 2266 
Q 1038 2550 1316 2698 
Q 1594 2847 1953 2847 
Q 2563 2847 2920 2465 
Q 3278 2084 3278 1441 
z
M 2706 1416 
Q 2706 1894 2472 2153 
Q 2238 2413 1819 2413 
Q 1425 2413 1183 2183 
Q 941 1953 941 1550 
Q 941 1041 1192 716 
Q 1444 391 1838 391 
Q 2244 391 2475 664 
Q 2706 938 2706 1416 
z
" transform="scale(0.015625)"/>
       </defs>
       <use xlink:href="#LiberationSans-30"/>
       <use xlink:href="#LiberationSans-2e" transform="translate(55.615234 0)"/>
       <use xlink:href="#LiberationSans-36" transform="translate(83.398438 0)"/>
      </g>
     </g>
    </g>
    <g id="text_5">
     <!-- CV -->
     <g transform="translate(186.084712 357.46452) scale(0.18 -0.18)">
      <defs>
       <path id="LiberationSans-43" d="M 2475 3981 
Q 1744 3981 1337 3511 
Q 931 3041 931 2222 
Q 931 1413 1354 920 
Q 1778 428 2500 428 
Q 3425 428 3891 1344 
L 4378 1100 
Q 4106 531 3614 234 
Q 3122 -63 2472 -63 
Q 1806 -63 1320 214 
Q 834 491 579 1005 
Q 325 1519 325 2222 
Q 325 3275 894 3872 
Q 1463 4469 2469 4469 
Q 3172 4469 3644 4194 
Q 4116 3919 4338 3378 
L 3772 3191 
Q 3619 3575 3280 3778 
Q 2941 3981 2475 3981 
z
" transform="scale(0.015625)"/>
       <path id="LiberationSans-56" d="M 2444 0 
L 1825 0 
L 28 4403 
L 656 4403 
L 1875 1303 
L 2138 525 
L 2400 1303 
L 3613 4403 
L 4241 4403 
L 2444 0 
z
" transform="scale(0.015625)"/>
      </defs>
      <use xlink:href="#LiberationSans-43"/>
      <use xlink:href="#LiberationSans-56" transform="translate(72.216797 0)"/>
     </g>
    </g>
   </g>
   <g id="matplotlib.axis_2">
    <g id="ytick_1">
     <g id="line2d_5">
      <defs>
       <path id="m494b8c04df" d="M 0 0 
L -6.5 0 
" style="stroke: #000000; stroke-width: 2.2"/>
      </defs>
      <g>
       <use xlink:href="#m494b8c04df" x="45.208594" y="305.144959" style="stroke: #000000; stroke-width: 2.2"/>
      </g>
     </g>
     <g id="text_6">
      <!-- 0 -->
      <g transform="translate(27.979375 309.855428) scale(0.13 -0.13)">
       <use xlink:href="#LiberationSans-30"/>
      </g>
     </g>
    </g>
    <g id="ytick_2">
     <g id="line2d_6">
      <g>
       <use xlink:href="#m494b8c04df" x="45.208594" y="271.1633" style="stroke: #000000; stroke-width: 2.2"/>
      </g>
     </g>
     <g id="text_7">
      <!-- 1 -->
      <g transform="translate(27.979375 275.873769) scale(0.13 -0.13)">
       <defs>
        <path id="LiberationSans-31" d="M 488 0 
L 488 478 
L 1609 478 
L 1609 3866 
L 616 3156 
L 616 3688 
L 1656 4403 
L 2175 4403 
L 2175 478 
L 3247 478 
L 3247 0 
L 488 0 
z
" transform="scale(0.015625)"/>
       </defs>
       <use xlink:href="#LiberationSans-31"/>
      </g>
     </g>
    </g>
    <g id="ytick_3">
     <g id="line2d_7">
      <g>
       <use xlink:href="#m494b8c04df" x="45.208594" y="237.181642" style="stroke: #000000; stroke-width: 2.2"/>
      </g>
     </g>
     <g id="text_8">
      <!-- 2 -->
      <g transform="translate(27.979375 241.89211) scale(0.13 -0.13)">
       <use xlink:href="#LiberationSans-32"/>
      </g>
     </g>
    </g>
    <g id="ytick_4">
     <g id="line2d_8">
      <g>
       <use xlink:href="#m494b8c04df" x="45.208594" y="203.199983" style="stroke: #000000; stroke-width: 2.2"/>
      </g>
     </g>
     <g id="text_9">
      <!-- 3 -->
      <g transform="translate(27.979375 207.910451) scale(0.13 -0.13)">
       <defs>
        <path id="LiberationSans-33" d="M 3278 1216 
Q 3278 606 2890 271 
Q 2503 -63 1784 -63 
Q 1116 -63 717 239 
Q 319 541 244 1131 
L 825 1184 
Q 938 403 1784 403 
Q 2209 403 2451 612 
Q 2694 822 2694 1234 
Q 2694 1594 2417 1795 
Q 2141 1997 1619 1997 
L 1300 1997 
L 1300 2484 
L 1606 2484 
Q 2069 2484 2323 2686 
Q 2578 2888 2578 3244 
Q 2578 3597 2370 3801 
Q 2163 4006 1753 4006 
Q 1381 4006 1151 3815 
Q 922 3625 884 3278 
L 319 3322 
Q 381 3863 767 4166 
Q 1153 4469 1759 4469 
Q 2422 4469 2789 4161 
Q 3156 3853 3156 3303 
Q 3156 2881 2920 2617 
Q 2684 2353 2234 2259 
L 2234 2247 
Q 2728 2194 3003 1916 
Q 3278 1638 3278 1216 
z
" transform="scale(0.015625)"/>
       </defs>
       <use xlink:href="#LiberationSans-33"/>
      </g>
     </g>
    </g>
    <g id="ytick_5">
     <g id="line2d_9">
      <g>
       <use xlink:href="#m494b8c04df" x="45.208594" y="169.218324" style="stroke: #000000; stroke-width: 2.2"/>
      </g>
     </g>
     <g id="text_10">
      <!-- 4 -->
      <g transform="translate(27.979375 173.928792) scale(0.13 -0.13)">
       <use xlink:href="#LiberationSans-34"/>
      </g>
     </g>
    </g>
    <g id="ytick_6">
     <g id="line2d_10">
      <g>
       <use xlink:href="#m494b8c04df" x="45.208594" y="135.236665" style="stroke: #000000; stroke-width: 2.2"/>
      </g>
     </g>
     <g id="text_11">
      <!-- 5 -->
      <g transform="translate(27.979375 139.947134) scale(0.13 -0.13)">
       <defs>
        <path id="LiberationSans-35" d="M 3291 1434 
Q 3291 738 2877 337 
Q 2463 -63 1728 -63 
Q 1113 -63 734 206 
Q 356 475 256 984 
L 825 1050 
Q 1003 397 1741 397 
Q 2194 397 2450 670 
Q 2706 944 2706 1422 
Q 2706 1838 2448 2094 
Q 2191 2350 1753 2350 
Q 1525 2350 1328 2278 
Q 1131 2206 934 2034 
L 384 2034 
L 531 4403 
L 3034 4403 
L 3034 3925 
L 1044 3925 
L 959 2528 
Q 1325 2809 1869 2809 
Q 2519 2809 2905 2428 
Q 3291 2047 3291 1434 
z
" transform="scale(0.015625)"/>
       </defs>
       <use xlink:href="#LiberationSans-35"/>
      </g>
     </g>
    </g>
    <g id="ytick_7">
     <g id="line2d_11">
      <g>
       <use xlink:href="#m494b8c04df" x="45.208594" y="101.255006" style="stroke: #000000; stroke-width: 2.2"/>
      </g>
     </g>
     <g id="text_12">
      <!-- 6 -->
      <g transform="translate(27.979375 105.965475) scale(0.13 -0.13)">
       <use xlink:href="#LiberationSans-36"/>
      </g>
     </g>
    </g>
    <g id="ytick_8">
     <g id="line2d_12">
      <g>
       <use xlink:href="#m494b8c04df" x="45.208594" y="67.273347" style="stroke: #000000; stroke-width: 2.2"/>
      </g>
     </g>
     <g id="text_13">
      <!-- 7 -->
      <g transform="translate(27.979375 71.983816) scale(0.13 -0.13)">
       <defs>
        <path id="LiberationSans-37" d="M 3238 3947 
Q 2563 2916 2284 2331 
Q 2006 1747 1867 1178 
Q 1728 609 1728 0 
L 1141 0 
Q 1141 844 1498 1776 
Q 1856 2709 2694 3925 
L 328 3925 
L 328 4403 
L 3238 4403 
L 3238 3947 
z
" transform="scale(0.015625)"/>
       </defs>
       <use xlink:href="#LiberationSans-37"/>
      </g>
     </g>
    </g>
    <g id="ytick_9">
     <g id="line2d_13">
      <g>
       <use xlink:href="#m494b8c04df" x="45.208594" y="33.291688" style="stroke: #000000; stroke-width: 2.2"/>
      </g>
     </g>
     <g id="text_14">
      <!-- 8 -->
      <g transform="translate(27.979375 38.002157) scale(0.13 -0.13)">
       <defs>
        <path id="LiberationSans-38" d="M 3281 1228 
Q 3281 619 2893 278 
Q 2506 -63 1781 -63 
Q 1075 -63 676 271 
Q 278 606 278 1222 
Q 278 1653 525 1947 
Q 772 2241 1156 2303 
L 1156 2316 
Q 797 2400 589 2681 
Q 381 2963 381 3341 
Q 381 3844 757 4156 
Q 1134 4469 1769 4469 
Q 2419 4469 2795 4162 
Q 3172 3856 3172 3334 
Q 3172 2956 2962 2675 
Q 2753 2394 2391 2322 
L 2391 2309 
Q 2813 2241 3047 1952 
Q 3281 1663 3281 1228 
z
M 2588 3303 
Q 2588 4050 1769 4050 
Q 1372 4050 1164 3862 
Q 956 3675 956 3303 
Q 956 2925 1170 2726 
Q 1384 2528 1775 2528 
Q 2172 2528 2380 2711 
Q 2588 2894 2588 3303 
z
M 2697 1281 
Q 2697 1691 2453 1898 
Q 2209 2106 1769 2106 
Q 1341 2106 1100 1882 
Q 859 1659 859 1269 
Q 859 359 1788 359 
Q 2247 359 2472 579 
Q 2697 800 2697 1281 
z
" transform="scale(0.015625)"/>
       </defs>
       <use xlink:href="#LiberationSans-38"/>
      </g>
     </g>
    </g>
    <g id="text_15">
     <!-- Density -->
     <g transform="translate(20.244375 203.586854) rotate(-90) scale(0.18 -0.18)">
      <defs>
       <path id="LiberationSans-44" d="M 4316 2247 
Q 4316 1566 4050 1055 
Q 3784 544 3296 272 
Q 2809 0 2172 0 
L 525 0 
L 525 4403 
L 1981 4403 
Q 3100 4403 3708 3842 
Q 4316 3281 4316 2247 
z
M 3716 2247 
Q 3716 3066 3267 3495 
Q 2819 3925 1969 3925 
L 1122 3925 
L 1122 478 
L 2103 478 
Q 2588 478 2955 690 
Q 3322 903 3519 1303 
Q 3716 1703 3716 2247 
z
" transform="scale(0.015625)"/>
       <path id="LiberationSans-65" d="M 863 1572 
Q 863 991 1103 675 
Q 1344 359 1806 359 
Q 2172 359 2392 506 
Q 2613 653 2691 878 
L 3184 738 
Q 2881 -63 1806 -63 
Q 1056 -63 664 384 
Q 272 831 272 1713 
Q 272 2550 664 2997 
Q 1056 3444 1784 3444 
Q 3275 3444 3275 1647 
L 3275 1572 
L 863 1572 
z
M 2694 2003 
Q 2647 2538 2422 2783 
Q 2197 3028 1775 3028 
Q 1366 3028 1127 2754 
Q 888 2481 869 2003 
L 2694 2003 
z
" transform="scale(0.015625)"/>
       <path id="LiberationSans-6e" d="M 2578 0 
L 2578 2144 
Q 2578 2478 2512 2662 
Q 2447 2847 2303 2928 
Q 2159 3009 1881 3009 
Q 1475 3009 1240 2731 
Q 1006 2453 1006 1959 
L 1006 0 
L 444 0 
L 444 2659 
Q 444 3250 425 3381 
L 956 3381 
Q 959 3366 962 3297 
Q 966 3228 970 3139 
Q 975 3050 981 2803 
L 991 2803 
Q 1184 3153 1439 3298 
Q 1694 3444 2072 3444 
Q 2628 3444 2886 3167 
Q 3144 2891 3144 2253 
L 3144 0 
L 2578 0 
z
" transform="scale(0.015625)"/>
       <path id="LiberationSans-73" d="M 2969 934 
Q 2969 456 2608 196 
Q 2247 -63 1597 -63 
Q 966 -63 623 145 
Q 281 353 178 794 
L 675 891 
Q 747 619 972 492 
Q 1197 366 1597 366 
Q 2025 366 2223 497 
Q 2422 628 2422 891 
Q 2422 1091 2284 1216 
Q 2147 1341 1841 1422 
L 1438 1528 
Q 953 1653 748 1773 
Q 544 1894 428 2066 
Q 313 2238 313 2488 
Q 313 2950 642 3192 
Q 972 3434 1603 3434 
Q 2163 3434 2492 3237 
Q 2822 3041 2909 2606 
L 2403 2544 
Q 2356 2769 2151 2889 
Q 1947 3009 1603 3009 
Q 1222 3009 1040 2893 
Q 859 2778 859 2544 
Q 859 2400 934 2306 
Q 1009 2213 1156 2147 
Q 1303 2081 1775 1966 
Q 2222 1853 2419 1758 
Q 2616 1663 2730 1547 
Q 2844 1431 2906 1279 
Q 2969 1128 2969 934 
z
" transform="scale(0.015625)"/>
       <path id="LiberationSans-69" d="M 428 4100 
L 428 4638 
L 991 4638 
L 991 4100 
L 428 4100 
z
M 428 0 
L 428 3381 
L 991 3381 
L 991 0 
L 428 0 
z
" transform="scale(0.015625)"/>
       <path id="LiberationSans-74" d="M 1731 25 
Q 1453 -50 1163 -50 
Q 488 -50 488 716 
L 488 2972 
L 97 2972 
L 97 3381 
L 509 3381 
L 675 4138 
L 1050 4138 
L 1050 3381 
L 1675 3381 
L 1675 2972 
L 1050 2972 
L 1050 838 
Q 1050 594 1129 495 
Q 1209 397 1406 397 
Q 1519 397 1731 441 
L 1731 25 
z
" transform="scale(0.015625)"/>
       <path id="LiberationSans-79" d="M 597 -1328 
Q 366 -1328 209 -1294 
L 209 -872 
Q 328 -891 472 -891 
Q 997 -891 1303 -119 
L 1356 16 
L 16 3381 
L 616 3381 
L 1328 1513 
Q 1344 1469 1366 1408 
Q 1388 1347 1506 1000 
Q 1625 653 1634 613 
L 1853 1228 
L 2594 3381 
L 3188 3381 
L 1888 0 
Q 1678 -541 1497 -805 
Q 1316 -1069 1095 -1198 
Q 875 -1328 597 -1328 
z
" transform="scale(0.015625)"/>
      </defs>
      <use xlink:href="#LiberationSans-44"/>
      <use xlink:href="#LiberationSans-65" transform="translate(72.216797 0)"/>
      <use xlink:href="#LiberationSans-6e" transform="translate(127.832031 0)"/>
      <use xlink:href="#LiberationSans-73" transform="translate(183.447266 0)"/>
      <use xlink:href="#LiberationSans-69" transform="translate(233.447266 0)"/>
      <use xlink:href="#LiberationSans-74" transform="translate(255.664062 0)"/>
      <use xlink:href="#LiberationSans-79" transform="translate(283.447266 0)"/>
     </g>
    </g>
   </g>
   <g id="line2d_14">
    <path d="M 45.208594 305.144959 
L 87.178844 305.050799 
L 89.567395 304.797812 
L 91.273503 304.406668 
L 92.638389 303.894129 
L 94.003275 303.12258 
L 95.02694 302.300228 
L 96.050605 301.178215 
L 97.074269 299.638534 
L 98.097934 297.53165 
L 99.121599 294.692307 
L 100.145263 290.967377 
L 101.168928 286.245312 
L 102.192593 280.471369 
L 103.557479 271.127177 
L 104.922365 259.922616 
L 106.287251 246.838484 
L 107.652137 231.829577 
L 109.358245 210.437752 
L 111.405574 181.679131 
L 116.865119 102.971214 
L 118.571227 81.96692 
L 119.936113 68.020091 
L 120.959778 59.620826 
L 121.983442 53.048192 
L 123.007107 48.183306 
L 123.68955 45.791247 
L 124.371993 44.011904 
L 125.054436 42.801965 
L 125.73688 42.138432 
L 126.078101 42.009998 
L 126.419323 42.018337 
L 126.760544 42.165128 
L 127.442987 42.881083 
L 128.12543 44.166575 
L 128.807873 46.013346 
L 129.831538 49.755535 
L 130.855203 54.463543 
L 132.561311 63.702993 
L 135.291083 80.10449 
L 139.726963 106.816446 
L 143.139179 127.32589 
L 147.575059 154.64292 
L 149.96361 167.610446 
L 152.35216 179.303092 
L 155.423154 193.119333 
L 158.152927 204.374267 
L 160.200256 211.903596 
L 162.247585 218.611772 
L 164.977358 226.690201 
L 167.024687 232.170475 
L 168.389573 235.313755 
L 169.754459 237.896387 
L 171.119346 239.979554 
L 174.531561 244.864876 
L 176.920112 248.969986 
L 186.133094 264.981446 
L 187.839202 267.476191 
L 189.204088 269.149891 
L 190.910196 270.86717 
L 193.981189 273.471406 
L 196.028519 275.398171 
L 200.464399 279.800048 
L 202.170507 281.074118 
L 205.923944 283.477756 
L 209.677381 285.684583 
L 213.430818 287.896926 
L 217.525476 290.401258 
L 219.231584 291.204695 
L 220.937692 291.772356 
L 225.032351 292.938999 
L 227.420901 294.086965 
L 229.127009 294.776041 
L 230.491895 295.088053 
L 233.562889 295.42419 
L 236.292662 295.892858 
L 241.410985 296.851112 
L 243.458314 296.92812 
L 245.846865 297.039328 
L 247.211751 297.33441 
L 248.917859 297.952233 
L 251.647631 298.987582 
L 253.694961 299.494322 
L 256.424733 299.910814 
L 260.860613 300.312815 
L 264.61405 300.522991 
L 271.438481 300.623428 
L 274.168254 301.117108 
L 278.262912 301.847785 
L 281.675128 302.199807 
L 289.182002 302.726452 
L 292.935439 302.89413 
L 298.394984 303.330929 
L 306.925523 303.168805 
L 310.337738 303.092666 
L 314.432397 303.279038 
L 322.280492 303.766864 
L 326.716372 303.560755 
L 330.811031 303.52249 
L 336.611797 303.669979 
L 342.071342 303.918907 
L 351.966767 304.079508 
L 351.966767 304.079508 
" clip-path="url(#p2eee3d44d2)" style="fill: none; stroke: #0072b2; stroke-width: 2.8; stroke-linecap: square"/>
   </g>
   <g id="line2d_15">
    <path d="M 45.208594 305.144959 
L 84.10785 305.043473 
L 87.861287 304.796556 
L 90.249838 304.435941 
L 92.638389 303.835805 
L 94.685718 303.094679 
L 96.391826 302.275495 
L 98.097934 301.203429 
L 99.46282 300.101648 
L 100.827706 298.728298 
L 102.192593 297.040033 
L 103.557479 295.004668 
L 104.922365 292.599378 
L 106.287251 289.806796 
L 107.993359 285.753286 
L 109.699467 281.07016 
L 111.405574 275.768531 
L 113.111682 269.840445 
L 114.81779 263.207707 
L 116.523898 255.713966 
L 118.230005 247.210082 
L 120.277335 235.696817 
L 123.348329 216.823236 
L 127.442987 191.927132 
L 132.902532 160.426124 
L 135.291083 147.761899 
L 136.997191 140.043968 
L 138.362077 134.936677 
L 139.726963 130.820686 
L 140.750628 128.350322 
L 141.774292 126.361698 
L 142.797957 124.806562 
L 143.821622 123.63273 
L 144.845286 122.780648 
L 145.868951 122.18143 
L 147.233837 121.651604 
L 148.939945 121.250253 
L 150.304831 121.135062 
L 151.328496 121.261433 
L 152.35216 121.679751 
L 153.034604 122.171532 
L 153.717047 122.863105 
L 154.740711 124.309149 
L 155.764376 126.256199 
L 156.788041 128.671668 
L 158.152927 132.493464 
L 160.200256 139.050823 
L 166.342244 159.2779 
L 171.460567 175.709795 
L 177.943777 197.011082 
L 181.355992 207.119343 
L 189.204088 229.699523 
L 190.910196 233.762642 
L 192.616303 237.325442 
L 195.004854 241.753994 
L 198.758291 248.193919 
L 201.146842 251.923857 
L 203.535393 255.227607 
L 206.606387 259.041449 
L 210.018602 262.928367 
L 213.089596 266.083385 
L 217.866698 270.874111 
L 222.6438 276.006399 
L 224.349907 277.419286 
L 227.07968 279.29602 
L 233.904111 283.744052 
L 236.292662 284.882204 
L 239.022434 285.940994 
L 241.752206 286.769106 
L 246.529308 288.115859 
L 249.941524 289.426441 
L 254.036182 290.938132 
L 257.107176 291.856942 
L 260.17817 292.524733 
L 264.272829 293.41299 
L 270.756038 295.18952 
L 274.509475 296.407194 
L 277.921691 297.452672 
L 280.310242 297.919412 
L 285.428565 298.763241 
L 288.84078 299.707035 
L 291.911774 300.476046 
L 294.300325 300.852703 
L 297.030098 301.04365 
L 309.314073 301.498189 
L 313.06751 301.817427 
L 321.598049 302.762044 
L 331.493474 303.403029 
L 340.365234 303.533395 
L 346.848444 304.110914 
L 351.625546 304.439975 
L 351.966767 304.453736 
L 351.966767 304.453736 
" clip-path="url(#p2eee3d44d2)" style="fill: none; stroke: #009e73; stroke-width: 2.8; stroke-linecap: square"/>
   </g>
   <g id="line2d_16">
    <path d="M 45.208594 305.144934 
L 53.739132 305.036393 
L 55.44524 304.766141 
L 56.468905 304.393474 
L 57.49257 303.723653 
L 58.175013 303.027255 
L 58.857456 302.05384 
L 59.539899 300.723436 
L 60.222342 298.945127 
L 60.904785 296.619834 
L 61.587228 293.644627 
L 62.269671 289.918426 
L 63.293336 282.722939 
L 64.317001 273.396136 
L 65.340665 261.832332 
L 66.705551 243.067558 
L 68.411659 215.217841 
L 74.212425 115.090369 
L 75.577312 96.799562 
L 76.600976 85.32454 
L 77.624641 75.901928 
L 78.648306 68.581384 
L 79.330749 64.86828 
L 80.013192 62.073525 
L 80.695635 60.172626 
L 81.378078 59.131386 
L 81.7193 58.919892 
L 82.060521 58.906302 
L 82.401743 59.083822 
L 82.742964 59.445168 
L 83.425407 60.687953 
L 84.10785 62.56796 
L 85.131515 66.424394 
L 86.15518 71.295944 
L 87.520066 78.921659 
L 90.249838 95.946773 
L 93.320832 114.627374 
L 95.709383 127.804611 
L 99.121599 145.293328 
L 102.533814 161.71272 
L 104.581143 170.655055 
L 106.287251 177.316224 
L 107.993359 183.159337 
L 109.699467 188.240859 
L 111.746796 193.596989 
L 114.135347 199.18531 
L 116.182676 203.41632 
L 117.888784 206.449845 
L 119.936113 209.56794 
L 128.807873 222.31612 
L 131.537646 226.104244 
L 136.655969 232.915673 
L 138.703298 236.228739 
L 145.186508 247.181405 
L 149.281166 253.191144 
L 152.693382 257.909305 
L 154.740711 260.340694 
L 157.129262 262.791564 
L 160.200256 265.965089 
L 162.588807 268.833396 
L 167.365909 274.739898 
L 169.413238 276.792892 
L 171.460567 278.518671 
L 174.19034 280.496719 
L 176.920112 282.212285 
L 179.991106 283.881467 
L 183.403321 285.482526 
L 193.298746 289.852885 
L 199.781956 292.850388 
L 202.85295 294.054364 
L 205.582722 294.901817 
L 214.454482 297.198738 
L 217.184255 297.697401 
L 224.008686 298.714729 
L 231.856782 300.316138 
L 235.95144 300.881307 
L 240.38732 301.253237 
L 249.259081 301.920941 
L 261.884278 302.934797 
L 273.827032 303.063813 
L 284.063679 303.54541 
L 289.864445 303.946174 
L 293.959104 303.956142 
L 301.465978 303.921404 
L 307.607966 303.951042 
L 314.432397 303.884842 
L 319.891941 304.103403 
L 327.740037 304.461847 
L 351.966767 304.803787 
L 351.966767 304.803787 
" clip-path="url(#p2eee3d44d2)" style="fill: none; stroke: #d55e00; stroke-width: 2.8; stroke-linecap: square"/>
   </g>
   <g id="line2d_17">
    <path d="M 45.208594 305.144949 
L 58.175013 305.036609 
L 61.92845 304.742655 
L 71.141432 303.804444 
L 77.283419 303.747013 
L 83.425407 303.553724 
L 86.15518 303.289493 
L 88.202509 302.860479 
L 89.908617 302.276868 
L 91.614725 301.438664 
L 92.979611 300.546313 
L 94.344497 299.407828 
L 95.709383 297.958819 
L 97.074269 296.120835 
L 98.439156 293.810363 
L 99.804042 290.948042 
L 101.168928 287.464103 
L 102.533814 283.299454 
L 103.8987 278.405783 
L 105.263587 272.749896 
L 106.969694 264.603435 
L 108.675802 255.356239 
L 111.064353 241.084565 
L 115.500233 214.286518 
L 117.888784 201.473028 
L 119.936113 191.689888 
L 121.983442 183.040803 
L 123.68955 176.764495 
L 125.395658 171.377616 
L 127.101766 166.845973 
L 128.466652 163.774616 
L 129.831538 161.145724 
L 131.196424 158.935342 
L 132.561311 157.136248 
L 133.926197 155.735453 
L 135.291083 154.693329 
L 136.655969 153.943971 
L 138.020855 153.420911 
L 139.385742 153.092003 
L 140.750628 152.977764 
L 141.774292 153.067837 
L 142.797957 153.337121 
L 143.821622 153.798386 
L 145.186508 154.695438 
L 146.892616 156.15355 
L 152.35216 161.381671 
L 154.058268 163.217246 
L 155.764376 165.392447 
L 157.470484 167.929126 
L 168.048352 184.870687 
L 169.754459 188.170937 
L 172.14301 193.332433 
L 175.555226 200.72991 
L 177.943777 205.286581 
L 182.720878 214.057573 
L 185.109429 219.067182 
L 188.521645 226.879022 
L 192.616303 236.200828 
L 195.004854 241.116329 
L 197.734627 246.215779 
L 201.146842 252.090006 
L 203.876614 256.393406 
L 206.265165 259.761036 
L 208.994938 263.192929 
L 212.065932 266.704079 
L 215.136926 269.887893 
L 217.525476 272.072933 
L 219.914027 273.984522 
L 222.6438 275.881126 
L 225.714794 277.741151 
L 233.562889 282.345978 
L 236.292662 283.890284 
L 238.681213 284.967383 
L 241.410985 285.913359 
L 245.846865 287.176681 
L 249.259081 287.908431 
L 253.012518 288.692274 
L 255.401068 289.425943 
L 259.154506 290.878103 
L 262.907943 292.245311 
L 265.978937 293.107503 
L 272.803368 294.899923 
L 276.215583 296.141578 
L 279.627799 297.34392 
L 281.675128 297.823707 
L 284.063679 298.113942 
L 288.84078 298.577968 
L 292.935439 299.351841 
L 296.006433 299.823472 
L 309.655295 301.298388 
L 315.456061 301.666969 
L 320.574384 301.764082 
L 326.716372 301.904255 
L 331.152253 302.219802 
L 336.611797 302.871728 
L 340.706456 303.261086 
L 344.118671 303.349394 
L 351.284324 303.45783 
L 351.966767 303.504309 
L 351.966767 303.504309 
" clip-path="url(#p2eee3d44d2)" style="fill: none; stroke: #cc79a7; stroke-width: 2.8; stroke-linecap: square"/>
   </g>
   <g id="line2d_18">
    <path d="M 45.208594 305.144959 
L 103.216257 305.036762 
L 109.699467 304.783228 
L 114.476568 304.375121 
L 117.888784 303.882451 
L 120.959778 303.22057 
L 123.68955 302.388736 
L 126.078101 301.412215 
L 128.12543 300.345901 
L 130.17276 299.029908 
L 132.220089 297.430657 
L 134.267418 295.520267 
L 136.314748 293.280321 
L 138.362077 290.705349 
L 140.750628 287.289993 
L 143.139179 283.46256 
L 145.868951 278.630659 
L 148.598723 273.352791 
L 151.669717 266.942725 
L 156.105597 257.094789 
L 162.930028 241.961733 
L 168.048352 231.216658 
L 173.507897 220.27336 
L 177.261334 213.189097 
L 179.991106 208.471115 
L 182.038435 205.312501 
L 183.744543 203.007916 
L 185.450651 201.054498 
L 187.156758 199.485488 
L 188.521645 198.513869 
L 189.886531 197.785531 
L 191.251417 197.279944 
L 192.957525 196.915084 
L 194.663633 196.782254 
L 196.710962 196.835384 
L 199.440734 197.133182 
L 202.511728 197.696057 
L 205.241501 198.418502 
L 207.971273 199.38507 
L 210.701045 200.607897 
L 213.430818 202.095165 
L 215.819369 203.632113 
L 218.20792 205.409875 
L 220.937692 207.742622 
L 224.008686 210.710285 
L 227.420901 214.332917 
L 231.856782 219.393069 
L 245.164422 234.919138 
L 247.894194 237.60639 
L 250.965188 240.298758 
L 255.059847 243.536695 
L 262.566721 249.441008 
L 269.732374 255.467646 
L 273.485811 258.474718 
L 276.556805 260.640228 
L 279.627799 262.521836 
L 288.158337 267.555778 
L 291.570553 269.97188 
L 299.077427 275.427594 
L 301.465978 276.841514 
L 303.854529 278.015593 
L 306.584301 279.112215 
L 318.527055 283.562786 
L 323.645378 285.593941 
L 327.398815 286.840935 
L 342.753785 291.595894 
L 347.530887 293.11711 
L 351.284324 294.080544 
L 351.966767 294.23227 
L 351.966767 294.23227 
" clip-path="url(#p2eee3d44d2)" style="fill: none; stroke: #e69f00; stroke-width: 2.8; stroke-linecap: square"/>
   </g>
   <g id="patch_3">
    <path d="M 45.208594 318.301707 
L 45.208594 28.85325 
" style="fill: none; stroke: #000000; stroke-width: 2.8; stroke-linejoin: miter; stroke-linecap: square"/>
   </g>
   <g id="patch_4">
    <path d="M 45.208594 318.301707 
L 351.966767 318.301707 
" style="fill: none; stroke: #000000; stroke-width: 2.8; stroke-linejoin: miter; stroke-linecap: square"/>
   </g>
   <g id="text_16">
    <!-- Baseline -->
    <g transform="translate(157.161243 22.85325) scale(0.216 -0.216)">
     <defs>
      <path id="LiberationSans-42" d="M 3931 1241 
Q 3931 653 3503 326 
Q 3075 0 2313 0 
L 525 0 
L 525 4403 
L 2125 4403 
Q 3675 4403 3675 3334 
Q 3675 2944 3456 2678 
Q 3238 2413 2838 2322 
Q 3363 2259 3647 1970 
Q 3931 1681 3931 1241 
z
M 3075 3263 
Q 3075 3619 2831 3772 
Q 2588 3925 2125 3925 
L 1122 3925 
L 1122 2531 
L 2125 2531 
Q 2603 2531 2839 2711 
Q 3075 2891 3075 3263 
z
M 3328 1288 
Q 3328 2066 2234 2066 
L 1122 2066 
L 1122 478 
L 2281 478 
Q 2828 478 3078 681 
Q 3328 884 3328 1288 
z
" transform="scale(0.015625)"/>
      <path id="LiberationSans-61" d="M 1294 -63 
Q 784 -63 528 206 
Q 272 475 272 944 
Q 272 1469 617 1750 
Q 963 2031 1731 2050 
L 2491 2063 
L 2491 2247 
Q 2491 2659 2316 2837 
Q 2141 3016 1766 3016 
Q 1388 3016 1216 2887 
Q 1044 2759 1009 2478 
L 422 2531 
Q 566 3444 1778 3444 
Q 2416 3444 2737 3151 
Q 3059 2859 3059 2306 
L 3059 850 
Q 3059 600 3125 473 
Q 3191 347 3375 347 
Q 3456 347 3559 369 
L 3559 19 
Q 3347 -31 3125 -31 
Q 2813 -31 2670 133 
Q 2528 297 2509 647 
L 2491 647 
Q 2275 259 1989 98 
Q 1703 -63 1294 -63 
z
M 1422 359 
Q 1731 359 1972 500 
Q 2213 641 2352 886 
Q 2491 1131 2491 1391 
L 2491 1669 
L 1875 1656 
Q 1478 1650 1273 1575 
Q 1069 1500 959 1344 
Q 850 1188 850 934 
Q 850 659 998 509 
Q 1147 359 1422 359 
z
" transform="scale(0.015625)"/>
      <path id="LiberationSans-6c" d="M 431 0 
L 431 4638 
L 994 4638 
L 994 0 
L 431 0 
z
" transform="scale(0.015625)"/>
     </defs>
     <use xlink:href="#LiberationSans-42"/>
     <use xlink:href="#LiberationSans-61" transform="translate(66.699219 0)"/>
     <use xlink:href="#LiberationSans-73" transform="translate(122.314453 0)"/>
     <use xlink:href="#LiberationSans-65" transform="translate(172.314453 0)"/>
     <use xlink:href="#LiberationSans-6c" transform="translate(227.929688 0)"/>
     <use xlink:href="#LiberationSans-69" transform="translate(250.146484 0)"/>
     <use xlink:href="#LiberationSans-6e" transform="translate(272.363281 0)"/>
     <use xlink:href="#LiberationSans-65" transform="translate(327.978516 0)"/>
    </g>
   </g>
   <g id="legend_1">
    <g id="line2d_19">
     <path d="M 256.920517 45.424187 
L 269.920517 45.424187 
L 282.920517 45.424187 
" style="fill: none; stroke: #0072b2; stroke-width: 2.8; stroke-linecap: square"/>
    </g>
    <g id="text_17">
     <!-- CBF -->
     <g transform="translate(293.320517 49.974187) scale(0.13 -0.13)">
      <defs>
       <path id="LiberationSans-46" d="M 1122 3916 
L 1122 2278 
L 3578 2278 
L 3578 1784 
L 1122 1784 
L 1122 0 
L 525 0 
L 525 4403 
L 3653 4403 
L 3653 3916 
L 1122 3916 
z
" transform="scale(0.015625)"/>
      </defs>
      <use xlink:href="#LiberationSans-43"/>
      <use xlink:href="#LiberationSans-42" transform="translate(72.216797 0)"/>
      <use xlink:href="#LiberationSans-46" transform="translate(138.916016 0)"/>
     </g>
    </g>
    <g id="line2d_20">
     <path d="M 256.920517 64.042625 
L 269.920517 64.042625 
L 282.920517 64.042625 
" style="fill: none; stroke: #009e73; stroke-width: 2.8; stroke-linecap: square"/>
    </g>
    <g id="text_18">
     <!-- CBV -->
     <g transform="translate(293.320517 68.592625) scale(0.13 -0.13)">
      <use xlink:href="#LiberationSans-43"/>
      <use xlink:href="#LiberationSans-42" transform="translate(72.216797 0)"/>
      <use xlink:href="#LiberationSans-56" transform="translate(138.916016 0)"/>
     </g>
    </g>
    <g id="line2d_21">
     <path d="M 256.920517 82.661062 
L 269.920517 82.661062 
L 282.920517 82.661062 
" style="fill: none; stroke: #d55e00; stroke-width: 2.8; stroke-linecap: square"/>
    </g>
    <g id="text_19">
     <!-- T2S -->
     <g transform="translate(293.320517 87.211062) scale(0.13 -0.13)">
      <defs>
       <path id="LiberationSans-54" d="M 2250 3916 
L 2250 0 
L 1656 0 
L 1656 3916 
L 144 3916 
L 144 4403 
L 3763 4403 
L 3763 3916 
L 2250 3916 
z
" transform="scale(0.015625)"/>
       <path id="LiberationSans-53" d="M 3975 1216 
Q 3975 606 3498 271 
Q 3022 -63 2156 -63 
Q 547 -63 291 1056 
L 869 1172 
Q 969 775 1294 589 
Q 1619 403 2178 403 
Q 2756 403 3070 601 
Q 3384 800 3384 1184 
Q 3384 1400 3286 1534 
Q 3188 1669 3009 1756 
Q 2831 1844 2584 1903 
Q 2338 1963 2038 2031 
Q 1516 2147 1245 2262 
Q 975 2378 819 2520 
Q 663 2663 580 2853 
Q 497 3044 497 3291 
Q 497 3856 930 4162 
Q 1363 4469 2169 4469 
Q 2919 4469 3316 4239 
Q 3713 4009 3872 3456 
L 3284 3353 
Q 3188 3703 2916 3861 
Q 2644 4019 2163 4019 
Q 1634 4019 1356 3844 
Q 1078 3669 1078 3322 
Q 1078 3119 1186 2986 
Q 1294 2853 1497 2761 
Q 1700 2669 2306 2534 
Q 2509 2488 2711 2439 
Q 2913 2391 3097 2323 
Q 3281 2256 3442 2165 
Q 3603 2075 3722 1944 
Q 3841 1813 3908 1634 
Q 3975 1456 3975 1216 
z
" transform="scale(0.015625)"/>
      </defs>
      <use xlink:href="#LiberationSans-54"/>
      <use xlink:href="#LiberationSans-32" transform="translate(61.083984 0)"/>
      <use xlink:href="#LiberationSans-53" transform="translate(116.699219 0)"/>
     </g>
    </g>
    <g id="line2d_22">
     <path d="M 256.920517 101.2795 
L 269.920517 101.2795 
L 282.920517 101.2795 
" style="fill: none; stroke: #cc79a7; stroke-width: 2.8; stroke-linecap: square"/>
    </g>
    <g id="text_20">
     <!-- R2′ -->
     <g transform="translate(293.320517 105.8295) scale(0.13 -0.13)">
      <defs>
       <path id="LiberationSans-52" d="M 3638 0 
L 2494 1828 
L 1122 1828 
L 1122 0 
L 525 0 
L 525 4403 
L 2597 4403 
Q 3341 4403 3745 4070 
Q 4150 3738 4150 3144 
Q 4150 2653 3864 2318 
Q 3578 1984 3075 1897 
L 4325 0 
L 3638 0 
z
M 3550 3138 
Q 3550 3522 3289 3723 
Q 3028 3925 2538 3925 
L 1122 3925 
L 1122 2300 
L 2563 2300 
Q 3034 2300 3292 2520 
Q 3550 2741 3550 3138 
z
" transform="scale(0.015625)"/>
       <path id="LiberationSans-2032" d="M 266 2781 
L 466 4403 
L 1078 4403 
L 584 2781 
L 266 2781 
z
" transform="scale(0.015625)"/>
      </defs>
      <use xlink:href="#LiberationSans-52"/>
      <use xlink:href="#LiberationSans-32" transform="translate(72.216797 0)"/>
      <use xlink:href="#LiberationSans-2032" transform="translate(127.832031 0)"/>
     </g>
    </g>
    <g id="line2d_23">
     <path d="M 256.920517 119.897937 
L 269.920517 119.897937 
L 282.920517 119.897937 
" style="fill: none; stroke: #e69f00; stroke-width: 2.8; stroke-linecap: square"/>
    </g>
    <g id="text_21">
     <!-- CMRO2 -->
     <g transform="translate(293.320517 124.447937) scale(0.13 -0.13)">
      <defs>
       <path id="LiberationSans-4d" d="M 4269 0 
L 4269 2938 
Q 4269 3425 4297 3875 
Q 4144 3316 4022 3000 
L 2884 0 
L 2466 0 
L 1313 3000 
L 1138 3531 
L 1034 3875 
L 1044 3528 
L 1056 2938 
L 1056 0 
L 525 0 
L 525 4403 
L 1309 4403 
L 2481 1350 
Q 2544 1166 2601 955 
Q 2659 744 2678 650 
Q 2703 775 2783 1029 
Q 2863 1284 2891 1350 
L 4041 4403 
L 4806 4403 
L 4806 0 
L 4269 0 
z
" transform="scale(0.015625)"/>
       <path id="LiberationSans-4f" d="M 4672 2222 
Q 4672 1531 4408 1012 
Q 4144 494 3650 215 
Q 3156 -63 2484 -63 
Q 1806 -63 1314 212 
Q 822 488 562 1008 
Q 303 1528 303 2222 
Q 303 3278 881 3873 
Q 1459 4469 2491 4469 
Q 3163 4469 3656 4201 
Q 4150 3934 4411 3425 
Q 4672 2916 4672 2222 
z
M 4063 2222 
Q 4063 3044 3652 3512 
Q 3241 3981 2491 3981 
Q 1734 3981 1321 3518 
Q 909 3056 909 2222 
Q 909 1394 1326 908 
Q 1744 422 2484 422 
Q 3247 422 3655 892 
Q 4063 1363 4063 2222 
z
" transform="scale(0.015625)"/>
      </defs>
      <use xlink:href="#LiberationSans-43"/>
      <use xlink:href="#LiberationSans-4d" transform="translate(72.216797 0)"/>
      <use xlink:href="#LiberationSans-52" transform="translate(155.517578 0)"/>
      <use xlink:href="#LiberationSans-4f" transform="translate(227.734375 0)"/>
      <use xlink:href="#LiberationSans-32" transform="translate(305.517578 0)"/>
     </g>
    </g>
   </g>
  </g>
  <g id="axes_2">
   <g id="patch_5">
    <path d="M 397.175361 318.301707 
L 703.933534 318.301707 
L 703.933534 28.85325 
L 397.175361 28.85325 
z
" style="fill: #ffffff"/>
   </g>
   <g id="matplotlib.axis_3">
    <g id="xtick_5">
     <g id="line2d_24">
      <g>
       <use xlink:href="#mb54d08c8be" x="397.175361" y="318.301707" style="stroke: #000000; stroke-width: 2.2"/>
      </g>
     </g>
     <g id="text_22">
      <!-- 0.0 -->
      <g transform="translate(388.140361 337.722645) scale(0.13 -0.13)">
       <use xlink:href="#LiberationSans-30"/>
       <use xlink:href="#LiberationSans-2e" transform="translate(55.615234 0)"/>
       <use xlink:href="#LiberationSans-30" transform="translate(83.398438 0)"/>
      </g>
     </g>
    </g>
    <g id="xtick_6">
     <g id="line2d_25">
      <g>
       <use xlink:href="#mb54d08c8be" x="474.175485" y="318.301707" style="stroke: #000000; stroke-width: 2.2"/>
      </g>
     </g>
     <g id="text_23">
      <!-- 0.2 -->
      <g transform="translate(465.140485 337.722645) scale(0.13 -0.13)">
       <use xlink:href="#LiberationSans-30"/>
       <use xlink:href="#LiberationSans-2e" transform="translate(55.615234 0)"/>
       <use xlink:href="#LiberationSans-32" transform="translate(83.398438 0)"/>
      </g>
     </g>
    </g>
    <g id="xtick_7">
     <g id="line2d_26">
      <g>
       <use xlink:href="#mb54d08c8be" x="551.175608" y="318.301707" style="stroke: #000000; stroke-width: 2.2"/>
      </g>
     </g>
     <g id="text_24">
      <!-- 0.4 -->
      <g transform="translate(542.140608 337.722645) scale(0.13 -0.13)">
       <use xlink:href="#LiberationSans-30"/>
       <use xlink:href="#LiberationSans-2e" transform="translate(55.615234 0)"/>
       <use xlink:href="#LiberationSans-34" transform="translate(83.398438 0)"/>
      </g>
     </g>
    </g>
    <g id="xtick_8">
     <g id="line2d_27">
      <g>
       <use xlink:href="#mb54d08c8be" x="628.175732" y="318.301707" style="stroke: #000000; stroke-width: 2.2"/>
      </g>
     </g>
     <g id="text_25">
      <!-- 0.6 -->
      <g transform="translate(619.140732 337.722645) scale(0.13 -0.13)">
       <use xlink:href="#LiberationSans-30"/>
       <use xlink:href="#LiberationSans-2e" transform="translate(55.615234 0)"/>
       <use xlink:href="#LiberationSans-36" transform="translate(83.398438 0)"/>
      </g>
     </g>
    </g>
    <g id="text_26">
     <!-- CV -->
     <g transform="translate(538.051479 357.46452) scale(0.18 -0.18)">
      <use xlink:href="#LiberationSans-43"/>
      <use xlink:href="#LiberationSans-56" transform="translate(72.216797 0)"/>
     </g>
    </g>
   </g>
   <g id="matplotlib.axis_4">
    <g id="ytick_10">
     <g id="line2d_28">
      <g>
       <use xlink:href="#m494b8c04df" x="397.175361" y="305.144959" style="stroke: #000000; stroke-width: 2.2"/>
      </g>
     </g>
     <g id="text_27">
      <!-- 0 -->
      <g transform="translate(379.946142 309.855428) scale(0.13 -0.13)">
       <use xlink:href="#LiberationSans-30"/>
      </g>
     </g>
    </g>
    <g id="ytick_11">
     <g id="line2d_29">
      <g>
       <use xlink:href="#m494b8c04df" x="397.175361" y="271.217286" style="stroke: #000000; stroke-width: 2.2"/>
      </g>
     </g>
     <g id="text_28">
      <!-- 1 -->
      <g transform="translate(379.946142 275.927754) scale(0.13 -0.13)">
       <use xlink:href="#LiberationSans-31"/>
      </g>
     </g>
    </g>
    <g id="ytick_12">
     <g id="line2d_30">
      <g>
       <use xlink:href="#m494b8c04df" x="397.175361" y="237.289612" style="stroke: #000000; stroke-width: 2.2"/>
      </g>
     </g>
     <g id="text_29">
      <!-- 2 -->
      <g transform="translate(379.946142 242.000081) scale(0.13 -0.13)">
       <use xlink:href="#LiberationSans-32"/>
      </g>
     </g>
    </g>
    <g id="ytick_13">
     <g id="line2d_31">
      <g>
       <use xlink:href="#m494b8c04df" x="397.175361" y="203.361938" style="stroke: #000000; stroke-width: 2.2"/>
      </g>
     </g>
     <g id="text_30">
      <!-- 3 -->
      <g transform="translate(379.946142 208.072407) scale(0.13 -0.13)">
       <use xlink:href="#LiberationSans-33"/>
      </g>
     </g>
    </g>
    <g id="ytick_14">
     <g id="line2d_32">
      <g>
       <use xlink:href="#m494b8c04df" x="397.175361" y="169.434264" style="stroke: #000000; stroke-width: 2.2"/>
      </g>
     </g>
     <g id="text_31">
      <!-- 4 -->
      <g transform="translate(379.946142 174.144733) scale(0.13 -0.13)">
       <use xlink:href="#LiberationSans-34"/>
      </g>
     </g>
    </g>
    <g id="ytick_15">
     <g id="line2d_33">
      <g>
       <use xlink:href="#m494b8c04df" x="397.175361" y="135.50659" style="stroke: #000000; stroke-width: 2.2"/>
      </g>
     </g>
     <g id="text_32">
      <!-- 5 -->
      <g transform="translate(379.946142 140.217059) scale(0.13 -0.13)">
       <use xlink:href="#LiberationSans-35"/>
      </g>
     </g>
    </g>
    <g id="ytick_16">
     <g id="line2d_34">
      <g>
       <use xlink:href="#m494b8c04df" x="397.175361" y="101.578916" style="stroke: #000000; stroke-width: 2.2"/>
      </g>
     </g>
     <g id="text_33">
      <!-- 6 -->
      <g transform="translate(379.946142 106.289385) scale(0.13 -0.13)">
       <use xlink:href="#LiberationSans-36"/>
      </g>
     </g>
    </g>
    <g id="ytick_17">
     <g id="line2d_35">
      <g>
       <use xlink:href="#m494b8c04df" x="397.175361" y="67.651243" style="stroke: #000000; stroke-width: 2.2"/>
      </g>
     </g>
     <g id="text_34">
      <!-- 7 -->
      <g transform="translate(379.946142 72.361711) scale(0.13 -0.13)">
       <use xlink:href="#LiberationSans-37"/>
      </g>
     </g>
    </g>
    <g id="ytick_18">
     <g id="line2d_36">
      <g>
       <use xlink:href="#m494b8c04df" x="397.175361" y="33.723569" style="stroke: #000000; stroke-width: 2.2"/>
      </g>
     </g>
     <g id="text_35">
      <!-- 8 -->
      <g transform="translate(379.946142 38.434037) scale(0.13 -0.13)">
       <use xlink:href="#LiberationSans-38"/>
      </g>
     </g>
    </g>
    <g id="text_36">
     <!-- Density -->
     <g transform="translate(372.211142 203.586854) rotate(-90) scale(0.18 -0.18)">
      <use xlink:href="#LiberationSans-44"/>
      <use xlink:href="#LiberationSans-65" transform="translate(72.216797 0)"/>
      <use xlink:href="#LiberationSans-6e" transform="translate(127.832031 0)"/>
      <use xlink:href="#LiberationSans-73" transform="translate(183.447266 0)"/>
      <use xlink:href="#LiberationSans-69" transform="translate(233.447266 0)"/>
      <use xlink:href="#LiberationSans-74" transform="translate(255.664062 0)"/>
      <use xlink:href="#LiberationSans-79" transform="translate(283.447266 0)"/>
     </g>
    </g>
   </g>
   <g id="line2d_37">
    <path d="M 397.175361 305.144959 
L 441.875384 305.037327 
L 443.922713 304.779329 
L 445.287599 304.397702 
L 446.311264 303.925418 
L 447.334929 303.229664 
L 448.358593 302.248675 
L 449.382258 300.920851 
L 450.405923 299.181461 
L 451.429587 296.949844 
L 452.453252 294.112904 
L 453.476917 290.518195 
L 454.500581 285.987854 
L 455.524246 280.351078 
L 456.547911 273.478035 
L 457.571575 265.296008 
L 458.936461 252.317025 
L 460.301348 237.017526 
L 462.007455 214.9326 
L 465.078449 170.789439 
L 467.125779 143.153594 
L 468.831886 123.164574 
L 470.537994 105.887425 
L 472.244102 90.940262 
L 474.291431 75.319528 
L 476.679982 59.05869 
L 478.044868 51.098624 
L 479.068533 46.411586 
L 479.750976 44.138433 
L 480.433419 42.658282 
L 480.774641 42.231726 
L 481.115862 42.016383 
L 481.457084 42.009998 
L 481.798305 42.207548 
L 482.139527 42.601718 
L 482.82197 43.942652 
L 483.504413 45.950656 
L 484.528078 50.034128 
L 485.551742 55.19184 
L 486.916628 63.362769 
L 494.423503 111.320971 
L 498.17694 133.11907 
L 502.61282 158.126425 
L 505.001371 173.271162 
L 507.731143 190.568577 
L 509.096029 198.043928 
L 510.460915 204.278135 
L 511.825802 209.287645 
L 513.190688 213.30993 
L 514.555574 216.65561 
L 516.944125 221.753467 
L 519.332676 226.961355 
L 521.721227 232.804003 
L 524.450999 239.461805 
L 525.815885 242.306249 
L 527.521993 245.320371 
L 529.910544 249.489461 
L 531.27543 252.379964 
L 533.663981 258.15245 
L 535.370089 262.030191 
L 536.734975 264.56353 
L 537.758639 266.078677 
L 539.123526 267.666381 
L 540.829633 269.206024 
L 543.218184 271.002373 
L 546.289178 273.291662 
L 547.995286 274.82157 
L 553.454831 280.016696 
L 555.160938 281.16258 
L 557.549489 282.466595 
L 561.985369 284.562747 
L 566.762471 286.840154 
L 568.127357 287.820921 
L 571.539573 290.508421 
L 572.563237 290.992904 
L 573.928124 291.334049 
L 578.022782 292.014469 
L 580.070112 292.719061 
L 587.918207 295.657084 
L 597.131189 298.078915 
L 605.320506 299.228224 
L 611.803716 299.858522 
L 616.580817 300.466949 
L 623.74647 301.338213 
L 629.206015 302.043418 
L 634.324338 302.448679 
L 641.148769 302.864301 
L 644.219763 302.776174 
L 647.631978 302.711068 
L 658.551068 303.052166 
L 664.693056 303.673864 
L 671.858708 304.028006 
L 675.270924 304.156785 
L 679.024361 304.012131 
L 682.436577 303.987018 
L 693.014445 304.122887 
L 697.791546 304.064895 
L 703.933534 303.824028 
L 703.933534 303.824028 
" clip-path="url(#p6fe32d9ae2)" style="fill: none; stroke: #0072b2; stroke-width: 2.8; stroke-linecap: square"/>
   </g>
   <g id="line2d_38">
    <path d="M 397.175361 305.144959 
L 435.733396 305.040477 
L 439.828055 304.789175 
L 442.557827 304.420613 
L 444.605156 303.949502 
L 446.311264 303.367391 
L 448.017372 302.550575 
L 449.382258 301.681739 
L 450.747144 300.584559 
L 452.11203 299.233335 
L 453.476917 297.61093 
L 454.841803 295.70088 
L 456.206689 293.476547 
L 457.571575 290.896899 
L 458.936461 287.913715 
L 460.301348 284.485569 
L 462.007455 279.53996 
L 463.713563 273.851085 
L 465.419671 267.411793 
L 467.125779 260.186918 
L 469.173108 250.421217 
L 471.220437 239.50041 
L 473.95021 223.512512 
L 484.186856 161.695169 
L 486.575407 149.040248 
L 488.281515 141.091022 
L 489.646401 135.65585 
L 491.011287 131.135254 
L 492.376173 127.511278 
L 493.399838 125.331489 
L 494.423503 123.561511 
L 495.447167 122.156124 
L 496.470832 121.078072 
L 497.494496 120.301771 
L 498.518161 119.814367 
L 499.541826 119.613754 
L 500.56549 119.703502 
L 501.589155 120.086194 
L 502.61282 120.758222 
L 503.636484 121.709155 
L 504.660149 122.926452 
L 506.025035 124.95252 
L 507.389921 127.449451 
L 508.754808 130.442401 
L 510.119694 133.931132 
L 511.825802 138.891476 
L 514.555574 147.63299 
L 519.332676 162.927015 
L 523.768556 176.89165 
L 526.157107 185.344582 
L 529.910544 198.764106 
L 531.957873 205.107319 
L 534.005202 210.699129 
L 539.805969 226.077101 
L 543.218184 235.216032 
L 545.265513 240.051845 
L 546.971621 243.538962 
L 548.677729 246.5086 
L 550.383837 249.032334 
L 553.796052 253.496446 
L 556.184603 256.85238 
L 560.620483 263.316537 
L 561.985369 264.869502 
L 563.350256 266.098819 
L 565.056363 267.284394 
L 568.127357 269.276432 
L 569.492244 270.437044 
L 571.198351 272.230734 
L 576.316675 278.011737 
L 578.022782 279.448336 
L 580.070112 280.858852 
L 582.458662 282.241851 
L 585.529656 283.742255 
L 590.306758 285.770586 
L 593.03653 286.75377 
L 595.425081 287.38959 
L 600.202183 288.555439 
L 602.249512 289.344466 
L 604.638063 290.561144 
L 608.3915 292.537339 
L 610.43883 293.31381 
L 612.486159 293.828535 
L 615.557153 294.316904 
L 619.651811 295.017971 
L 625.452578 296.29203 
L 633.641895 298.492353 
L 639.10144 299.874873 
L 641.489991 300.232326 
L 644.902206 300.462622 
L 648.314422 300.768033 
L 655.821296 301.710855 
L 662.645727 301.963556 
L 672.882373 303.037006 
L 677.659475 303.159173 
L 682.095355 303.359943 
L 690.625894 303.854015 
L 703.933534 304.042823 
L 703.933534 304.042823 
" clip-path="url(#p6fe32d9ae2)" style="fill: none; stroke: #009e73; stroke-width: 2.8; stroke-linecap: square"/>
   </g>
   <g id="line2d_39">
    <path d="M 397.175361 305.144941 
L 405.7059 305.05324 
L 407.412007 304.819937 
L 408.435672 304.494947 
L 409.459337 303.90602 
L 410.14178 303.289459 
L 410.824223 302.422361 
L 411.506666 301.229535 
L 412.189109 299.624041 
L 412.871552 297.509259 
L 413.553995 294.782472 
L 414.236438 291.340009 
L 415.260103 284.623122 
L 416.283768 275.810092 
L 417.307432 264.755606 
L 418.331097 251.482642 
L 419.695983 230.726342 
L 421.743312 195.159408 
L 425.155528 135.098576 
L 426.861636 109.367626 
L 428.226522 92.192792 
L 429.250187 81.605173 
L 430.273851 73.119115 
L 431.297516 66.784488 
L 431.979959 63.747465 
L 432.662402 61.630888 
L 433.344845 60.394639 
L 433.686067 60.090761 
L 434.027288 59.986625 
L 434.36851 60.074254 
L 434.709731 60.345243 
L 435.392174 61.402023 
L 436.074618 63.084146 
L 436.757061 65.316634 
L 437.780725 69.532876 
L 439.145611 76.392184 
L 441.192941 88.277861 
L 448.358593 131.421542 
L 450.747144 144.176688 
L 453.135695 155.720566 
L 455.524246 166.132046 
L 457.571575 174.183462 
L 459.618904 181.456194 
L 462.007455 189.10578 
L 464.396006 195.965083 
L 466.102114 200.267974 
L 467.808222 203.920832 
L 469.173108 206.353518 
L 470.879216 208.90975 
L 473.95021 212.945967 
L 480.774641 221.968491 
L 484.186856 226.879581 
L 487.940293 232.219648 
L 492.376173 238.421887 
L 494.764724 242.292631 
L 499.200604 249.692559 
L 500.906712 252.103418 
L 502.954041 254.60048 
L 506.707478 258.68597 
L 512.849466 265.492668 
L 515.579239 268.856185 
L 522.062448 277.208121 
L 523.768556 278.859666 
L 525.474664 280.19608 
L 527.521993 281.474266 
L 529.910544 282.68687 
L 534.346424 284.635375 
L 538.782304 286.607437 
L 541.853298 288.260743 
L 544.924292 289.842875 
L 547.312843 290.776541 
L 553.796052 292.851622 
L 557.549489 293.924396 
L 567.103693 296.51263 
L 578.705225 299.710858 
L 582.458662 300.405599 
L 585.870878 300.825527 
L 589.283093 301.008565 
L 596.448746 301.334875 
L 602.590734 301.861848 
L 611.462494 302.724576 
L 618.286925 303.054226 
L 624.087691 303.130455 
L 629.888458 303.184238 
L 634.66556 303.565141 
L 639.10144 303.837989 
L 644.902206 303.914552 
L 661.28084 304.041209 
L 669.128936 303.859197 
L 673.906038 304.073311 
L 683.801463 304.569101 
L 698.473989 304.853363 
L 703.933534 304.775945 
L 703.933534 304.775945 
" clip-path="url(#p6fe32d9ae2)" style="fill: none; stroke: #d55e00; stroke-width: 2.8; stroke-linecap: square"/>
   </g>
   <g id="line2d_40">
    <path d="M 397.175361 305.14493 
L 409.459337 305.040762 
L 413.212774 304.763043 
L 417.989875 304.13158 
L 421.402091 303.776745 
L 424.814306 303.67672 
L 436.415839 303.569985 
L 439.486833 303.353923 
L 441.534162 303.034274 
L 443.24027 302.574691 
L 444.605156 302.018846 
L 445.970042 301.2383 
L 447.334929 300.175242 
L 448.699815 298.769683 
L 450.064701 296.960297 
L 451.429587 294.684578 
L 452.794473 291.879842 
L 454.15936 288.486576 
L 455.524246 284.454599 
L 456.889132 279.751388 
L 458.59524 272.923108 
L 460.301348 265.108617 
L 462.348677 254.677603 
L 466.443335 232.256208 
L 469.855551 214.176211 
L 472.926545 199.192063 
L 475.656317 187.054353 
L 477.703647 178.866245 
L 479.409754 172.794124 
L 481.115862 167.542722 
L 482.480748 164.025195 
L 483.845635 161.183021 
L 484.869299 159.517778 
L 485.892964 158.253892 
L 486.916628 157.375448 
L 487.940293 156.849356 
L 488.963958 156.626329 
L 489.987622 156.643899 
L 491.352509 156.919115 
L 496.12961 158.16036 
L 501.247934 158.983224 
L 502.61282 159.5155 
L 503.977706 160.27222 
L 505.342592 161.25852 
L 507.0487 162.802483 
L 508.754808 164.67143 
L 510.802137 167.307928 
L 512.849466 170.315558 
L 515.579239 174.750805 
L 518.991454 180.722385 
L 522.062448 186.511681 
L 524.450999 191.454061 
L 527.521993 198.361495 
L 532.299095 209.117973 
L 535.028867 214.652839 
L 538.099861 220.303034 
L 543.218184 229.607667 
L 554.137274 250.273087 
L 557.208268 255.40556 
L 559.93804 259.523538 
L 562.326591 262.721281 
L 564.715142 265.553552 
L 567.103693 268.047048 
L 569.492244 270.204127 
L 571.880794 272.030482 
L 574.951788 274.037569 
L 579.387668 276.944059 
L 586.553321 281.854789 
L 588.941872 283.180994 
L 591.330423 284.244547 
L 593.718974 285.031863 
L 596.789968 285.760319 
L 604.296842 287.453853 
L 610.43883 288.801459 
L 614.87471 289.817307 
L 617.945704 290.768343 
L 629.206015 294.580973 
L 637.395332 296.66836 
L 642.513655 297.747695 
L 647.631978 298.592783 
L 652.750302 299.500184 
L 658.551068 300.565041 
L 661.622062 300.882475 
L 665.034277 301.00701 
L 676.977032 301.153726 
L 682.436577 301.645771 
L 691.649558 302.651608 
L 698.815211 303.086394 
L 703.933534 303.569369 
L 703.933534 303.569369 
" clip-path="url(#p6fe32d9ae2)" style="fill: none; stroke: #cc79a7; stroke-width: 2.8; stroke-linecap: square"/>
   </g>
   <g id="line2d_41">
    <path d="M 397.175361 305.144959 
L 458.59524 305.034143 
L 466.443335 304.792196 
L 471.220437 304.433778 
L 474.291431 304.00265 
L 477.021204 303.390814 
L 479.409754 302.604148 
L 481.457084 301.692038 
L 483.504413 300.521911 
L 485.551742 299.064661 
L 487.599072 297.297875 
L 489.646401 295.202128 
L 491.69373 292.756953 
L 493.741059 289.940184 
L 495.788389 286.732231 
L 497.835718 283.123241 
L 500.224269 278.41496 
L 502.61282 273.210941 
L 505.342592 266.751868 
L 509.096029 257.264485 
L 516.261682 239.014831 
L 519.332676 231.809692 
L 522.40367 225.175222 
L 525.133442 219.779608 
L 527.863214 214.845082 
L 530.592987 210.349177 
L 533.322759 206.298453 
L 535.71131 203.182366 
L 537.758639 200.905692 
L 539.464747 199.329053 
L 541.170855 198.056471 
L 542.876963 197.072458 
L 544.58307 196.338821 
L 546.6304 195.720547 
L 549.018951 195.27128 
L 551.407501 195.066706 
L 553.454831 195.096792 
L 555.50216 195.348441 
L 557.549489 195.849642 
L 559.596819 196.612338 
L 561.644148 197.628705 
L 564.032699 199.102264 
L 566.762471 201.100059 
L 569.833465 203.654006 
L 573.245681 206.782153 
L 576.999118 210.530915 
L 580.752555 214.59393 
L 593.03653 228.225766 
L 607.709057 243.112686 
L 610.43883 245.421712 
L 613.851045 247.977709 
L 619.651811 252.259398 
L 623.74647 255.645689 
L 631.594566 262.211401 
L 635.348003 265.0412 
L 639.442661 267.845103 
L 644.560984 271.077023 
L 648.655643 273.44307 
L 652.750302 275.540893 
L 664.693056 281.466593 
L 670.152601 284.062728 
L 675.270924 286.257254 
L 679.706804 287.930391 
L 683.801463 289.238708 
L 688.578564 290.525992 
L 703.592313 294.162298 
L 703.933534 294.240247 
L 703.933534 294.240247 
" clip-path="url(#p6fe32d9ae2)" style="fill: none; stroke: #e69f00; stroke-width: 2.8; stroke-linecap: square"/>
   </g>
   <g id="patch_6">
    <path d="M 397.175361 318.301707 
L 397.175361 28.85325 
" style="fill: none; stroke: #000000; stroke-width: 2.8; stroke-linejoin: miter; stroke-linecap: square"/>
   </g>
   <g id="patch_7">
    <path d="M 397.175361 318.301707 
L 703.933534 318.301707 
" style="fill: none; stroke: #000000; stroke-width: 2.8; stroke-linejoin: miter; stroke-linecap: square"/>
   </g>
   <g id="text_37">
    <!-- Task -->
    <g transform="translate(528.353698 22.85325) scale(0.216 -0.216)">
     <defs>
      <path id="LiberationSans-6b" d="M 2550 0 
L 1406 1544 
L 994 1203 
L 994 0 
L 431 0 
L 431 4638 
L 994 4638 
L 994 1741 
L 2478 3381 
L 3138 3381 
L 1766 1928 
L 3209 0 
L 2550 0 
z
" transform="scale(0.015625)"/>
     </defs>
     <use xlink:href="#LiberationSans-54"/>
     <use xlink:href="#LiberationSans-61" transform="translate(49.958984 0)"/>
     <use xlink:href="#LiberationSans-73" transform="translate(105.574219 0)"/>
     <use xlink:href="#LiberationSans-6b" transform="translate(155.574219 0)"/>
    </g>
   </g>
   <g id="legend_2">
    <g id="line2d_42">
     <path d="M 608.887284 45.424187 
L 621.887284 45.424187 
L 634.887284 45.424187 
" style="fill: none; stroke: #0072b2; stroke-width: 2.8; stroke-linecap: square"/>
    </g>
    <g id="text_38">
     <!-- CBF -->
     <g transform="translate(645.287284 49.974187) scale(0.13 -0.13)">
      <use xlink:href="#LiberationSans-43"/>
      <use xlink:href="#LiberationSans-42" transform="translate(72.216797 0)"/>
      <use xlink:href="#LiberationSans-46" transform="translate(138.916016 0)"/>
     </g>
    </g>
    <g id="line2d_43">
     <path d="M 608.887284 64.042625 
L 621.887284 64.042625 
L 634.887284 64.042625 
" style="fill: none; stroke: #009e73; stroke-width: 2.8; stroke-linecap: square"/>
    </g>
    <g id="text_39">
     <!-- CBV -->
     <g transform="translate(645.287284 68.592625) scale(0.13 -0.13)">
      <use xlink:href="#LiberationSans-43"/>
      <use xlink:href="#LiberationSans-42" transform="translate(72.216797 0)"/>
      <use xlink:href="#LiberationSans-56" transform="translate(138.916016 0)"/>
     </g>
    </g>
    <g id="line2d_44">
     <path d="M 608.887284 82.661062 
L 621.887284 82.661062 
L 634.887284 82.661062 
" style="fill: none; stroke: #d55e00; stroke-width: 2.8; stroke-linecap: square"/>
    </g>
    <g id="text_40">
     <!-- T2S -->
     <g transform="translate(645.287284 87.211062) scale(0.13 -0.13)">
      <use xlink:href="#LiberationSans-54"/>
      <use xlink:href="#LiberationSans-32" transform="translate(61.083984 0)"/>
      <use xlink:href="#LiberationSans-53" transform="translate(116.699219 0)"/>
     </g>
    </g>
    <g id="line2d_45">
     <path d="M 608.887284 101.2795 
L 621.887284 101.2795 
L 634.887284 101.2795 
" style="fill: none; stroke: #cc79a7; stroke-width: 2.8; stroke-linecap: square"/>
    </g>
    <g id="text_41">
     <!-- R2′ -->
     <g transform="translate(645.287284 105.8295) scale(0.13 -0.13)">
      <use xlink:href="#LiberationSans-52"/>
      <use xlink:href="#LiberationSans-32" transform="translate(72.216797 0)"/>
      <use xlink:href="#LiberationSans-2032" transform="translate(127.832031 0)"/>
     </g>
    </g>
    <g id="line2d_46">
     <path d="M 608.887284 119.897937 
L 621.887284 119.897937 
L 634.887284 119.897937 
" style="fill: none; stroke: #e69f00; stroke-width: 2.8; stroke-linecap: square"/>
    </g>
    <g id="text_42">
     <!-- CMRO2 -->
     <g transform="translate(645.287284 124.447937) scale(0.13 -0.13)">
      <use xlink:href="#LiberationSans-43"/>
      <use xlink:href="#LiberationSans-4d" transform="translate(72.216797 0)"/>
      <use xlink:href="#LiberationSans-52" transform="translate(155.517578 0)"/>
      <use xlink:href="#LiberationSans-4f" transform="translate(227.734375 0)"/>
      <use xlink:href="#LiberationSans-32" transform="translate(305.517578 0)"/>
     </g>
    </g>
   </g>
  </g>
  <g id="axes_3">
   <g id="patch_8">
    <path d="M 774.441347 318.301707 
L 1081.19952 318.301707 
L 1081.19952 28.85325 
L 774.441347 28.85325 
z
" style="fill: #ffffff"/>
   </g>
   <g id="matplotlib.axis_5">
    <g id="xtick_9">
     <g id="line2d_47">
      <g>
       <use xlink:href="#mb54d08c8be" x="774.441347" y="318.301707" style="stroke: #000000; stroke-width: 2.2"/>
      </g>
     </g>
     <g id="text_43">
      <!-- 0 -->
      <g transform="translate(770.826737 337.722645) scale(0.13 -0.13)">
       <use xlink:href="#LiberationSans-30"/>
      </g>
     </g>
    </g>
    <g id="xtick_10">
     <g id="line2d_48">
      <g>
       <use xlink:href="#mb54d08c8be" x="822.986613" y="318.301707" style="stroke: #000000; stroke-width: 2.2"/>
      </g>
     </g>
     <g id="text_44">
      <!-- 2 -->
      <g transform="translate(819.372003 337.722645) scale(0.13 -0.13)">
       <use xlink:href="#LiberationSans-32"/>
      </g>
     </g>
    </g>
    <g id="xtick_11">
     <g id="line2d_49">
      <g>
       <use xlink:href="#mb54d08c8be" x="871.531879" y="318.301707" style="stroke: #000000; stroke-width: 2.2"/>
      </g>
     </g>
     <g id="text_45">
      <!-- 4 -->
      <g transform="translate(867.917269 337.722645) scale(0.13 -0.13)">
       <use xlink:href="#LiberationSans-34"/>
      </g>
     </g>
    </g>
    <g id="xtick_12">
     <g id="line2d_50">
      <g>
       <use xlink:href="#mb54d08c8be" x="920.077145" y="318.301707" style="stroke: #000000; stroke-width: 2.2"/>
      </g>
     </g>
     <g id="text_46">
      <!-- 6 -->
      <g transform="translate(916.462536 337.722645) scale(0.13 -0.13)">
       <use xlink:href="#LiberationSans-36"/>
      </g>
     </g>
    </g>
    <g id="xtick_13">
     <g id="line2d_51">
      <g>
       <use xlink:href="#mb54d08c8be" x="968.622411" y="318.301707" style="stroke: #000000; stroke-width: 2.2"/>
      </g>
     </g>
     <g id="text_47">
      <!-- 8 -->
      <g transform="translate(965.007802 337.722645) scale(0.13 -0.13)">
       <use xlink:href="#LiberationSans-38"/>
      </g>
     </g>
    </g>
    <g id="xtick_14">
     <g id="line2d_52">
      <g>
       <use xlink:href="#mb54d08c8be" x="1017.167677" y="318.301707" style="stroke: #000000; stroke-width: 2.2"/>
      </g>
     </g>
     <g id="text_48">
      <!-- 10 -->
      <g transform="translate(1009.938458 337.722645) scale(0.13 -0.13)">
       <use xlink:href="#LiberationSans-31"/>
       <use xlink:href="#LiberationSans-30" transform="translate(55.615234 0)"/>
      </g>
     </g>
    </g>
    <g id="xtick_15">
     <g id="line2d_53">
      <g>
       <use xlink:href="#mb54d08c8be" x="1065.712943" y="318.301707" style="stroke: #000000; stroke-width: 2.2"/>
      </g>
     </g>
     <g id="text_49">
      <!-- 12 -->
      <g transform="translate(1058.483725 337.722645) scale(0.13 -0.13)">
       <use xlink:href="#LiberationSans-31"/>
       <use xlink:href="#LiberationSans-32" transform="translate(55.615234 0)"/>
      </g>
     </g>
    </g>
    <g id="text_50">
     <!-- CV -->
     <g transform="translate(915.317465 357.46452) scale(0.18 -0.18)">
      <use xlink:href="#LiberationSans-43"/>
      <use xlink:href="#LiberationSans-56" transform="translate(72.216797 0)"/>
     </g>
    </g>
   </g>
   <g id="matplotlib.axis_6">
    <g id="ytick_19">
     <g id="line2d_54">
      <g>
       <use xlink:href="#m494b8c04df" x="774.441347" y="309.593271" style="stroke: #000000; stroke-width: 2.2"/>
      </g>
     </g>
     <g id="text_51">
      <!-- 0.000 -->
      <g transform="translate(731.912909 314.30374) scale(0.13 -0.13)">
       <use xlink:href="#LiberationSans-30"/>
       <use xlink:href="#LiberationSans-2e" transform="translate(55.615234 0)"/>
       <use xlink:href="#LiberationSans-30" transform="translate(83.398438 0)"/>
       <use xlink:href="#LiberationSans-30" transform="translate(139.013672 0)"/>
       <use xlink:href="#LiberationSans-30" transform="translate(194.628906 0)"/>
      </g>
     </g>
    </g>
    <g id="ytick_20">
     <g id="line2d_55">
      <g>
       <use xlink:href="#m494b8c04df" x="774.441347" y="275.221856" style="stroke: #000000; stroke-width: 2.2"/>
      </g>
     </g>
     <g id="text_52">
      <!-- 0.025 -->
      <g transform="translate(731.912909 279.932324) scale(0.13 -0.13)">
       <use xlink:href="#LiberationSans-30"/>
       <use xlink:href="#LiberationSans-2e" transform="translate(55.615234 0)"/>
       <use xlink:href="#LiberationSans-30" transform="translate(83.398438 0)"/>
       <use xlink:href="#LiberationSans-32" transform="translate(139.013672 0)"/>
       <use xlink:href="#LiberationSans-35" transform="translate(194.628906 0)"/>
      </g>
     </g>
    </g>
    <g id="ytick_21">
     <g id="line2d_56">
      <g>
       <use xlink:href="#m494b8c04df" x="774.441347" y="240.85044" style="stroke: #000000; stroke-width: 2.2"/>
      </g>
     </g>
     <g id="text_53">
      <!-- 0.050 -->
      <g transform="translate(731.912909 245.560909) scale(0.13 -0.13)">
       <use xlink:href="#LiberationSans-30"/>
       <use xlink:href="#LiberationSans-2e" transform="translate(55.615234 0)"/>
       <use xlink:href="#LiberationSans-30" transform="translate(83.398438 0)"/>
       <use xlink:href="#LiberationSans-35" transform="translate(139.013672 0)"/>
       <use xlink:href="#LiberationSans-30" transform="translate(194.628906 0)"/>
      </g>
     </g>
    </g>
    <g id="ytick_22">
     <g id="line2d_57">
      <g>
       <use xlink:href="#m494b8c04df" x="774.441347" y="206.479024" style="stroke: #000000; stroke-width: 2.2"/>
      </g>
     </g>
     <g id="text_54">
      <!-- 0.075 -->
      <g transform="translate(731.912909 211.189493) scale(0.13 -0.13)">
       <use xlink:href="#LiberationSans-30"/>
       <use xlink:href="#LiberationSans-2e" transform="translate(55.615234 0)"/>
       <use xlink:href="#LiberationSans-30" transform="translate(83.398438 0)"/>
       <use xlink:href="#LiberationSans-37" transform="translate(139.013672 0)"/>
       <use xlink:href="#LiberationSans-35" transform="translate(194.628906 0)"/>
      </g>
     </g>
    </g>
    <g id="ytick_23">
     <g id="line2d_58">
      <g>
       <use xlink:href="#m494b8c04df" x="774.441347" y="172.107608" style="stroke: #000000; stroke-width: 2.2"/>
      </g>
     </g>
     <g id="text_55">
      <!-- 0.100 -->
      <g transform="translate(731.912909 176.818077) scale(0.13 -0.13)">
       <use xlink:href="#LiberationSans-30"/>
       <use xlink:href="#LiberationSans-2e" transform="translate(55.615234 0)"/>
       <use xlink:href="#LiberationSans-31" transform="translate(83.398438 0)"/>
       <use xlink:href="#LiberationSans-30" transform="translate(139.013672 0)"/>
       <use xlink:href="#LiberationSans-30" transform="translate(194.628906 0)"/>
      </g>
     </g>
    </g>
    <g id="ytick_24">
     <g id="line2d_59">
      <g>
       <use xlink:href="#m494b8c04df" x="774.441347" y="137.736193" style="stroke: #000000; stroke-width: 2.2"/>
      </g>
     </g>
     <g id="text_56">
      <!-- 0.125 -->
      <g transform="translate(731.912909 142.446661) scale(0.13 -0.13)">
       <use xlink:href="#LiberationSans-30"/>
       <use xlink:href="#LiberationSans-2e" transform="translate(55.615234 0)"/>
       <use xlink:href="#LiberationSans-31" transform="translate(83.398438 0)"/>
       <use xlink:href="#LiberationSans-32" transform="translate(139.013672 0)"/>
       <use xlink:href="#LiberationSans-35" transform="translate(194.628906 0)"/>
      </g>
     </g>
    </g>
    <g id="ytick_25">
     <g id="line2d_60">
      <g>
       <use xlink:href="#m494b8c04df" x="774.441347" y="103.364777" style="stroke: #000000; stroke-width: 2.2"/>
      </g>
     </g>
     <g id="text_57">
      <!-- 0.150 -->
      <g transform="translate(731.912909 108.075246) scale(0.13 -0.13)">
       <use xlink:href="#LiberationSans-30"/>
       <use xlink:href="#LiberationSans-2e" transform="translate(55.615234 0)"/>
       <use xlink:href="#LiberationSans-31" transform="translate(83.398438 0)"/>
       <use xlink:href="#LiberationSans-35" transform="translate(139.013672 0)"/>
       <use xlink:href="#LiberationSans-30" transform="translate(194.628906 0)"/>
      </g>
     </g>
    </g>
    <g id="ytick_26">
     <g id="line2d_61">
      <g>
       <use xlink:href="#m494b8c04df" x="774.441347" y="68.993361" style="stroke: #000000; stroke-width: 2.2"/>
      </g>
     </g>
     <g id="text_58">
      <!-- 0.175 -->
      <g transform="translate(731.912909 73.70383) scale(0.13 -0.13)">
       <use xlink:href="#LiberationSans-30"/>
       <use xlink:href="#LiberationSans-2e" transform="translate(55.615234 0)"/>
       <use xlink:href="#LiberationSans-31" transform="translate(83.398438 0)"/>
       <use xlink:href="#LiberationSans-37" transform="translate(139.013672 0)"/>
       <use xlink:href="#LiberationSans-35" transform="translate(194.628906 0)"/>
      </g>
     </g>
    </g>
    <g id="ytick_27">
     <g id="line2d_62">
      <g>
       <use xlink:href="#m494b8c04df" x="774.441347" y="34.621945" style="stroke: #000000; stroke-width: 2.2"/>
      </g>
     </g>
     <g id="text_59">
      <!-- 0.200 -->
      <g transform="translate(731.912909 39.332414) scale(0.13 -0.13)">
       <use xlink:href="#LiberationSans-30"/>
       <use xlink:href="#LiberationSans-2e" transform="translate(55.615234 0)"/>
       <use xlink:href="#LiberationSans-32" transform="translate(83.398438 0)"/>
       <use xlink:href="#LiberationSans-30" transform="translate(139.013672 0)"/>
       <use xlink:href="#LiberationSans-30" transform="translate(194.628906 0)"/>
      </g>
     </g>
    </g>
    <g id="text_60">
     <!-- Density -->
     <g transform="translate(724.177909 203.586854) rotate(-90) scale(0.18 -0.18)">
      <use xlink:href="#LiberationSans-44"/>
      <use xlink:href="#LiberationSans-65" transform="translate(72.216797 0)"/>
      <use xlink:href="#LiberationSans-6e" transform="translate(127.832031 0)"/>
      <use xlink:href="#LiberationSans-73" transform="translate(183.447266 0)"/>
      <use xlink:href="#LiberationSans-69" transform="translate(233.447266 0)"/>
      <use xlink:href="#LiberationSans-74" transform="translate(255.664062 0)"/>
      <use xlink:href="#LiberationSans-79" transform="translate(283.447266 0)"/>
     </g>
    </g>
   </g>
   <g id="line2d_63">
    <path d="M 774.441347 301.37461 
L 775.806233 299.255271 
L 777.171119 296.713145 
L 778.536005 293.696989 
L 779.900891 290.157174 
L 781.265778 286.04769 
L 782.630664 281.328325 
L 784.336772 274.523427 
L 786.042879 266.676403 
L 787.748987 257.77869 
L 789.796316 245.755814 
L 791.843646 232.382958 
L 794.232197 215.349938 
L 797.644412 189.226453 
L 803.7864 141.897775 
L 806.174951 125.169242 
L 808.22228 112.177735 
L 810.269609 100.668544 
L 811.975717 92.31866 
L 813.681825 85.147163 
L 815.046711 80.266806 
L 816.411597 76.139592 
L 817.776484 72.746077 
L 819.14137 70.057758 
L 820.165034 68.483036 
L 821.188699 67.267866 
L 822.212364 66.393813 
L 823.236028 65.841537 
L 824.259693 65.591144 
L 825.283358 65.622502 
L 826.307022 65.915521 
L 827.330687 66.450386 
L 828.354352 67.207762 
L 829.719238 68.531512 
L 831.084124 70.17551 
L 832.790232 72.62111 
L 834.837561 76.03681 
L 837.226112 80.550859 
L 839.955884 86.232515 
L 843.3681 93.866302 
L 848.827645 106.718042 
L 859.064291 130.867307 
L 864.182614 142.302867 
L 868.618494 151.685106 
L 873.054375 160.540244 
L 877.490255 168.889507 
L 881.926135 176.785548 
L 886.703237 184.832646 
L 891.139117 191.880383 
L 895.233775 197.978627 
L 898.987212 203.177188 
L 902.399428 207.553222 
L 905.811643 211.597486 
L 909.56508 215.698887 
L 913.659739 219.84511 
L 919.801727 225.7047 
L 930.038373 235.474898 
L 942.322349 247.360769 
L 946.417008 250.946431 
L 949.829223 253.653837 
L 953.241439 256.07143 
L 956.653654 258.196417 
L 960.06587 260.054101 
L 963.819307 261.847452 
L 968.93763 264.019523 
L 981.904049 269.151603 
L 989.752145 272.099366 
L 996.576576 274.407433 
L 1008.178108 278.027477 
L 1020.120863 281.597637 
L 1026.26285 283.199982 
L 1032.404838 284.568926 
L 1039.229269 285.8519 
L 1047.077365 287.098919 
L 1055.607904 288.228685 
L 1070.28043 289.880551 
L 1081.19952 291.088878 
L 1081.19952 291.088878 
" clip-path="url(#p1fb90cdc9d)" style="fill: none; stroke: #0072b2; stroke-width: 2.8; stroke-linecap: square"/>
   </g>
   <g id="line2d_64">
    <path d="M 774.441347 298.228061 
L 776.147454 295.462338 
L 777.853562 292.206521 
L 779.55967 288.420142 
L 781.265778 284.069814 
L 782.971885 279.131533 
L 785.019215 272.412851 
L 787.066544 264.834367 
L 789.113873 256.431087 
L 791.502424 245.676446 
L 794.232197 232.333667 
L 797.985634 212.740904 
L 805.833729 171.415067 
L 808.563502 158.286554 
L 810.952053 147.755764 
L 813.340603 138.273701 
L 815.387933 131.054388 
L 817.435262 124.706969 
L 819.14137 120.088899 
L 820.847477 116.074125 
L 822.553585 112.64743 
L 824.259693 109.787329 
L 825.624579 107.889834 
L 826.989465 106.323659 
L 828.354352 105.073363 
L 829.719238 104.123182 
L 831.084124 103.457349 
L 832.44901 103.060344 
L 833.813896 102.917067 
L 835.178783 103.012952 
L 836.543669 103.334014 
L 837.908555 103.86685 
L 839.614663 104.811166 
L 841.32077 106.042265 
L 843.026878 107.53702 
L 845.074207 109.647206 
L 847.121537 112.066904 
L 849.510088 115.23144 
L 852.23986 119.227353 
L 855.652076 124.66793 
L 859.746734 131.647132 
L 866.912387 144.397174 
L 875.442925 159.459454 
L 881.243692 169.236537 
L 886.362015 177.429011 
L 891.139117 184.667055 
L 895.916218 191.493926 
L 900.352099 197.45986 
L 904.787979 203.068335 
L 909.223859 208.333032 
L 914.000961 213.656634 
L 919.460505 219.387558 
L 925.943715 225.854 
L 933.109367 232.691383 
L 939.251355 238.250724 
L 944.369679 242.581396 
L 948.805559 246.056282 
L 953.241439 249.244812 
L 957.677319 252.143864 
L 962.113199 254.775376 
L 967.231522 257.540426 
L 973.714732 260.773262 
L 985.657486 266.43502 
L 993.16436 269.787366 
L 998.623905 271.983565 
L 1003.742228 273.796114 
L 1008.860551 275.370506 
L 1014.661318 276.920936 
L 1023.191857 278.945483 
L 1049.124694 284.794841 
L 1055.949125 286.021648 
L 1062.773556 287.020402 
L 1071.304095 288.03289 
L 1081.19952 289.091338 
L 1081.19952 289.091338 
" clip-path="url(#p1fb90cdc9d)" style="fill: none; stroke: #009e73; stroke-width: 2.8; stroke-linecap: square"/>
   </g>
   <g id="line2d_65">
    <path d="M 774.441347 305.144959 
L 777.171119 303.942619 
L 779.900891 302.488627 
L 782.289442 300.98448 
L 784.677993 299.241583 
L 787.066544 297.239756 
L 789.455095 294.960617 
L 791.843646 292.388328 
L 794.232197 289.510349 
L 796.620747 286.318162 
L 799.35052 282.280532 
L 802.080292 277.830448 
L 804.810065 272.980494 
L 807.881059 267.075257 
L 811.293274 260.014026 
L 815.387933 250.970204 
L 820.506256 239.077475 
L 831.425345 213.55267 
L 835.520004 204.666044 
L 838.93222 197.802432 
L 842.003214 192.138477 
L 844.732986 187.562976 
L 847.121537 183.940415 
L 849.510088 180.689441 
L 851.898638 177.819381 
L 854.287189 175.334075 
L 856.334519 173.509193 
L 858.381848 171.962535 
L 860.429177 170.688246 
L 862.476507 169.678456 
L 864.523836 168.923567 
L 866.571165 168.412536 
L 868.618494 168.133165 
L 870.665824 168.072383 
L 872.713153 168.216505 
L 875.101704 168.624878 
L 877.490255 169.270527 
L 879.878806 170.131133 
L 882.608578 171.350008 
L 885.679572 172.98423 
L 889.091787 175.078265 
L 892.845224 177.660597 
L 897.281105 181.009121 
L 902.399428 185.167267 
L 909.223859 191.027536 
L 923.896386 204.040187 
L 933.450589 212.319737 
L 940.957463 218.531368 
L 947.781894 223.896846 
L 954.265103 228.724962 
L 960.748313 233.281363 
L 967.231522 237.55872 
L 973.37351 241.346804 
L 979.515498 244.873517 
L 985.657486 248.140168 
L 991.799474 251.155709 
L 998.282683 254.083973 
L 1005.107114 256.908902 
L 1012.272767 259.620628 
L 1019.779641 262.213015 
L 1027.627737 264.684381 
L 1036.158275 267.136514 
L 1046.0537 269.746174 
L 1059.361341 273.010648 
L 1078.128526 277.379435 
L 1081.19952 278.065067 
L 1081.19952 278.065067 
" clip-path="url(#p1fb90cdc9d)" style="fill: none; stroke: #d55e00; stroke-width: 2.8; stroke-linecap: square"/>
   </g>
   <g id="line2d_66">
    <path d="M 774.441347 304.279879 
L 777.171119 302.834568 
L 779.55967 301.327439 
L 781.948221 299.569708 
L 784.336772 297.539523 
L 786.725322 295.217166 
L 789.113873 292.585915 
L 791.502424 289.6329 
L 793.890975 286.349897 
L 796.620747 282.190417 
L 799.35052 277.601633 
L 802.080292 272.599641 
L 805.151286 266.51284 
L 808.563502 259.245007 
L 812.65816 249.959906 
L 818.117705 236.975055 
L 827.330687 215.007606 
L 831.425345 205.838873 
L 834.837561 198.711421 
L 837.908555 192.790101 
L 840.638327 187.972388 
L 843.3681 183.610245 
L 845.756651 180.18701 
L 848.145201 177.14289 
L 850.533752 174.483657 
L 852.581082 172.511402 
L 854.628411 170.820419 
L 856.67574 169.406255 
L 858.723069 168.262396 
L 860.770399 167.380518 
L 862.817728 166.750725 
L 864.865057 166.361817 
L 866.912387 166.201543 
L 868.959716 166.256861 
L 871.007045 166.514185 
L 873.395596 167.051169 
L 875.784147 167.822008 
L 878.513919 168.961215 
L 881.243692 170.34553 
L 884.314686 172.158446 
L 887.726901 174.443661 
L 891.480338 177.229937 
L 895.916218 180.814635 
L 901.034542 185.24317 
L 907.858973 191.463872 
L 931.744481 213.515381 
L 937.886469 218.727769 
L 943.346014 223.074842 
L 948.464337 226.878078 
L 953.58266 230.408381 
L 958.700984 233.671749 
L 964.160528 236.88189 
L 969.961295 240.030935 
L 976.785726 243.4713 
L 985.657486 247.672147 
L 998.623905 253.54391 
L 1010.225438 258.581776 
L 1018.755976 262.05991 
L 1026.26285 264.892373 
L 1033.428503 267.366783 
L 1040.594156 269.612739 
L 1048.10103 271.734199 
L 1055.949125 273.725108 
L 1064.479664 275.662415 
L 1074.033867 277.600637 
L 1081.19952 278.925008 
L 1081.19952 278.925008 
" clip-path="url(#p1fb90cdc9d)" style="fill: none; stroke: #cc79a7; stroke-width: 2.8; stroke-linecap: square"/>
   </g>
   <g id="line2d_67">
    <path d="M 774.441347 303.815999 
L 776.147454 302.183576 
L 777.853562 300.191212 
L 779.55967 297.788635 
L 781.265778 294.925839 
L 782.971885 291.554986 
L 784.677993 287.63253 
L 786.384101 283.121476 
L 788.090209 277.993656 
L 789.796316 272.231899 
L 791.843646 264.476003 
L 793.890975 255.822184 
L 796.279526 244.663192 
L 799.009298 230.68496 
L 802.421514 211.825115 
L 813.340603 150.189193 
L 816.070376 136.734246 
L 818.458927 126.187265 
L 820.506256 118.184919 
L 822.212364 112.300641 
L 823.918471 107.154415 
L 825.624579 102.755496 
L 826.989465 99.772652 
L 828.354352 97.259404 
L 829.719238 95.20484 
L 831.084124 93.594512 
L 832.107789 92.667903 
L 833.131453 91.973137 
L 834.155118 91.501286 
L 835.178783 91.242904 
L 836.202447 91.188137 
L 837.226112 91.326842 
L 838.249776 91.648684 
L 839.614663 92.344657 
L 840.979549 93.32295 
L 842.344435 94.559131 
L 844.050543 96.430697 
L 845.756651 98.623029 
L 847.80398 101.617476 
L 850.192531 105.526516 
L 852.922303 110.422493 
L 856.334519 116.99906 
L 861.452842 127.392984 
L 871.689488 148.254962 
L 876.46659 157.429377 
L 880.561249 164.846585 
L 884.655907 171.813285 
L 888.750566 178.327932 
L 892.845224 184.412394 
L 896.939883 190.102554 
L 901.375763 195.872948 
L 906.152865 201.701803 
L 911.61241 207.994617 
L 919.460505 216.655224 
L 930.720817 228.755897 
L 936.180361 234.334895 
L 940.616241 238.568493 
L 944.7109 242.171866 
L 948.805559 245.466128 
L 952.900217 248.471812 
L 957.336097 251.452927 
L 962.454421 254.616151 
L 968.255187 257.932814 
L 974.397175 261.196475 
L 980.539163 264.223757 
L 986.681151 267.003253 
L 992.481917 269.384215 
L 998.282683 271.530181 
L 1004.765893 273.689092 
L 1012.272767 275.946628 
L 1020.120863 278.073584 
L 1027.968958 279.964455 
L 1036.840719 281.861752 
L 1050.489581 284.522885 
L 1063.114778 286.794374 
L 1071.645317 288.113152 
L 1079.834634 289.148941 
L 1081.19952 289.301066 
L 1081.19952 289.301066 
" clip-path="url(#p1fb90cdc9d)" style="fill: none; stroke: #e69f00; stroke-width: 2.8; stroke-linecap: square"/>
   </g>
   <g id="line2d_68">
    <path d="M 774.441347 297.938158 
L 775.806233 294.943557 
L 777.171119 291.366226 
L 778.536005 287.142761 
L 779.900891 282.214731 
L 781.265778 276.531745 
L 782.971885 268.307994 
L 784.677993 258.800217 
L 786.384101 248.007551 
L 788.43143 233.433073 
L 790.47876 217.268356 
L 793.208532 193.768377 
L 803.103957 106.107655 
L 805.151286 90.871708 
L 806.857394 79.605817 
L 808.563502 69.779992 
L 809.928388 63.008891 
L 811.293274 57.224547 
L 812.65816 52.423519 
L 814.023046 48.585465 
L 815.046711 46.318454 
L 816.070376 44.554739 
L 817.09404 43.272206 
L 818.117705 42.44635 
L 818.800148 42.136569 
L 819.482591 42.009998 
L 820.165034 42.058368 
L 820.847477 42.273305 
L 821.871142 42.889619 
L 822.894807 43.833472 
L 823.918471 45.076957 
L 825.283358 47.154127 
L 826.648244 49.653835 
L 828.354352 53.284311 
L 830.401681 58.24592 
L 832.790232 64.667901 
L 835.861226 73.599405 
L 840.979549 89.286961 
L 848.486423 112.18389 
L 852.922303 124.978941 
L 856.67574 135.186706 
L 860.429177 144.756648 
L 863.841393 152.877929 
L 867.253608 160.451287 
L 870.665824 167.504323 
L 874.419261 174.719403 
L 878.172698 181.444392 
L 882.267356 188.318448 
L 886.703237 195.3143 
L 891.139117 201.893401 
L 895.574997 208.06248 
L 899.669655 213.382918 
L 903.764314 218.344647 
L 907.858973 222.969232 
L 912.294853 227.644267 
L 917.071955 232.351178 
L 922.190278 237.07358 
L 927.308601 241.492424 
L 932.426924 245.624579 
L 938.227691 250.009594 
L 945.052122 254.867832 
L 951.194109 258.987014 
L 956.312433 262.154928 
L 960.748313 264.63452 
L 965.184193 266.84821 
L 969.961295 268.97562 
L 975.762061 271.30645 
L 981.904049 273.548731 
L 987.363594 275.322701 
L 992.823139 276.862247 
L 999.64757 278.538983 
L 1016.708647 282.424407 
L 1024.897964 284.063582 
L 1037.18194 286.247932 
L 1051.513245 288.619414 
L 1074.375089 292.093366 
L 1081.19952 292.921605 
L 1081.19952 292.921605 
" clip-path="url(#p1fb90cdc9d)" style="fill: none; stroke: #000000; stroke-width: 2.8; stroke-linecap: square"/>
   </g>
   <g id="patch_9">
    <path d="M 774.441347 318.301707 
L 774.441347 28.85325 
" style="fill: none; stroke: #000000; stroke-width: 2.8; stroke-linejoin: miter; stroke-linecap: square"/>
   </g>
   <g id="patch_10">
    <path d="M 774.441347 318.301707 
L 1081.19952 318.301707 
" style="fill: none; stroke: #000000; stroke-width: 2.8; stroke-linejoin: miter; stroke-linecap: square"/>
   </g>
   <g id="text_61">
    <!-- Signal change (%) -->
    <g transform="translate(839.574308 22.85325) scale(0.216 -0.216)">
     <defs>
      <path id="LiberationSans-67" d="M 1713 -1328 
Q 1159 -1328 831 -1111 
Q 503 -894 409 -494 
L 975 -413 
Q 1031 -647 1223 -773 
Q 1416 -900 1728 -900 
Q 2569 -900 2569 84 
L 2569 628 
L 2563 628 
Q 2403 303 2125 139 
Q 1847 -25 1475 -25 
Q 853 -25 561 387 
Q 269 800 269 1684 
Q 269 2581 583 3007 
Q 897 3434 1538 3434 
Q 1897 3434 2161 3270 
Q 2425 3106 2569 2803 
L 2575 2803 
Q 2575 2897 2587 3128 
Q 2600 3359 2613 3381 
L 3147 3381 
Q 3128 3213 3128 2681 
L 3128 97 
Q 3128 -1328 1713 -1328 
z
M 2569 1691 
Q 2569 2103 2456 2401 
Q 2344 2700 2139 2858 
Q 1934 3016 1675 3016 
Q 1244 3016 1047 2703 
Q 850 2391 850 1691 
Q 850 997 1034 694 
Q 1219 391 1666 391 
Q 1931 391 2137 547 
Q 2344 703 2456 995 
Q 2569 1288 2569 1691 
z
" transform="scale(0.015625)"/>
      <path id="LiberationSans-20" transform="scale(0.015625)"/>
      <path id="LiberationSans-63" d="M 859 1706 
Q 859 1031 1071 706 
Q 1284 381 1713 381 
Q 2013 381 2214 543 
Q 2416 706 2463 1044 
L 3031 1006 
Q 2966 519 2616 228 
Q 2266 -63 1728 -63 
Q 1019 -63 645 385 
Q 272 834 272 1694 
Q 272 2547 647 2995 
Q 1022 3444 1722 3444 
Q 2241 3444 2583 3175 
Q 2925 2906 3013 2434 
L 2434 2391 
Q 2391 2672 2212 2837 
Q 2034 3003 1706 3003 
Q 1259 3003 1059 2706 
Q 859 2409 859 1706 
z
" transform="scale(0.015625)"/>
      <path id="LiberationSans-68" d="M 991 2803 
Q 1172 3134 1426 3289 
Q 1681 3444 2072 3444 
Q 2622 3444 2883 3170 
Q 3144 2897 3144 2253 
L 3144 0 
L 2578 0 
L 2578 2144 
Q 2578 2500 2512 2673 
Q 2447 2847 2297 2928 
Q 2147 3009 1881 3009 
Q 1484 3009 1245 2734 
Q 1006 2459 1006 1994 
L 1006 0 
L 444 0 
L 444 4638 
L 1006 4638 
L 1006 3431 
Q 1006 3241 995 3037 
Q 984 2834 981 2803 
L 991 2803 
z
" transform="scale(0.015625)"/>
      <path id="LiberationSans-28" d="M 397 1663 
Q 397 2566 680 3284 
Q 963 4003 1550 4638 
L 2094 4638 
Q 1509 3988 1236 3256 
Q 963 2525 963 1656 
Q 963 791 1233 62 
Q 1503 -666 2094 -1325 
L 1550 -1325 
Q 959 -688 678 32 
Q 397 753 397 1650 
L 397 1663 
z
" transform="scale(0.015625)"/>
      <path id="LiberationSans-25" d="M 5463 1356 
Q 5463 684 5209 323 
Q 4956 -38 4463 -38 
Q 3975 -38 3726 314 
Q 3478 666 3478 1356 
Q 3478 2069 3717 2417 
Q 3956 2766 4475 2766 
Q 4988 2766 5225 2408 
Q 5463 2050 5463 1356 
z
M 1647 0 
L 1163 0 
L 4044 4403 
L 4534 4403 
L 1647 0 
z
M 1231 4441 
Q 1728 4441 1968 4091 
Q 2209 3741 2209 3047 
Q 2209 2369 1961 2003 
Q 1713 1638 1219 1638 
Q 725 1638 476 2000 
Q 228 2363 228 3047 
Q 228 3744 468 4092 
Q 709 4441 1231 4441 
z
M 5000 1356 
Q 5000 1916 4879 2167 
Q 4759 2419 4475 2419 
Q 4191 2419 4064 2172 
Q 3938 1925 3938 1356 
Q 3938 822 4061 564 
Q 4184 306 4469 306 
Q 4744 306 4872 567 
Q 5000 828 5000 1356 
z
M 1750 3047 
Q 1750 3597 1631 3850 
Q 1513 4103 1231 4103 
Q 938 4103 813 3854 
Q 688 3606 688 3047 
Q 688 2506 813 2248 
Q 938 1991 1225 1991 
Q 1497 1991 1623 2253 
Q 1750 2516 1750 3047 
z
" transform="scale(0.015625)"/>
      <path id="LiberationSans-29" d="M 1734 1650 
Q 1734 747 1451 28 
Q 1169 -691 581 -1325 
L 38 -1325 
Q 625 -669 897 57 
Q 1169 784 1169 1656 
Q 1169 2528 895 3256 
Q 622 3984 38 4638 
L 581 4638 
Q 1172 4000 1453 3279 
Q 1734 2559 1734 1663 
L 1734 1650 
z
" transform="scale(0.015625)"/>
     </defs>
     <use xlink:href="#LiberationSans-53"/>
     <use xlink:href="#LiberationSans-69" transform="translate(66.699219 0)"/>
     <use xlink:href="#LiberationSans-67" transform="translate(88.916016 0)"/>
     <use xlink:href="#LiberationSans-6e" transform="translate(144.53125 0)"/>
     <use xlink:href="#LiberationSans-61" transform="translate(200.146484 0)"/>
     <use xlink:href="#LiberationSans-6c" transform="translate(255.761719 0)"/>
     <use xlink:href="#LiberationSans-20" transform="translate(277.978516 0)"/>
     <use xlink:href="#LiberationSans-63" transform="translate(305.761719 0)"/>
     <use xlink:href="#LiberationSans-68" transform="translate(355.761719 0)"/>
     <use xlink:href="#LiberationSans-61" transform="translate(411.376953 0)"/>
     <use xlink:href="#LiberationSans-6e" transform="translate(466.992188 0)"/>
     <use xlink:href="#LiberationSans-67" transform="translate(522.607422 0)"/>
     <use xlink:href="#LiberationSans-65" transform="translate(578.222656 0)"/>
     <use xlink:href="#LiberationSans-20" transform="translate(633.837891 0)"/>
     <use xlink:href="#LiberationSans-28" transform="translate(661.621094 0)"/>
     <use xlink:href="#LiberationSans-25" transform="translate(694.921875 0)"/>
     <use xlink:href="#LiberationSans-29" transform="translate(783.837891 0)"/>
    </g>
   </g>
   <g id="legend_3">
    <g id="line2d_69">
     <path d="M 986.15327 45.424187 
L 999.15327 45.424187 
L 1012.15327 45.424187 
" style="fill: none; stroke: #0072b2; stroke-width: 2.8; stroke-linecap: square"/>
    </g>
    <g id="text_62">
     <!-- CBF -->
     <g transform="translate(1022.55327 49.974187) scale(0.13 -0.13)">
      <use xlink:href="#LiberationSans-43"/>
      <use xlink:href="#LiberationSans-42" transform="translate(72.216797 0)"/>
      <use xlink:href="#LiberationSans-46" transform="translate(138.916016 0)"/>
     </g>
    </g>
    <g id="line2d_70">
     <path d="M 986.15327 64.042625 
L 999.15327 64.042625 
L 1012.15327 64.042625 
" style="fill: none; stroke: #009e73; stroke-width: 2.8; stroke-linecap: square"/>
    </g>
    <g id="text_63">
     <!-- CBV -->
     <g transform="translate(1022.55327 68.592625) scale(0.13 -0.13)">
      <use xlink:href="#LiberationSans-43"/>
      <use xlink:href="#LiberationSans-42" transform="translate(72.216797 0)"/>
      <use xlink:href="#LiberationSans-56" transform="translate(138.916016 0)"/>
     </g>
    </g>
    <g id="line2d_71">
     <path d="M 986.15327 82.661062 
L 999.15327 82.661062 
L 1012.15327 82.661062 
" style="fill: none; stroke: #d55e00; stroke-width: 2.8; stroke-linecap: square"/>
    </g>
    <g id="text_64">
     <!-- T2S -->
     <g transform="translate(1022.55327 87.211062) scale(0.13 -0.13)">
      <use xlink:href="#LiberationSans-54"/>
      <use xlink:href="#LiberationSans-32" transform="translate(61.083984 0)"/>
      <use xlink:href="#LiberationSans-53" transform="translate(116.699219 0)"/>
     </g>
    </g>
    <g id="line2d_72">
     <path d="M 986.15327 101.2795 
L 999.15327 101.2795 
L 1012.15327 101.2795 
" style="fill: none; stroke: #cc79a7; stroke-width: 2.8; stroke-linecap: square"/>
    </g>
    <g id="text_65">
     <!-- R2′ -->
     <g transform="translate(1022.55327 105.8295) scale(0.13 -0.13)">
      <use xlink:href="#LiberationSans-52"/>
      <use xlink:href="#LiberationSans-32" transform="translate(72.216797 0)"/>
      <use xlink:href="#LiberationSans-2032" transform="translate(127.832031 0)"/>
     </g>
    </g>
    <g id="line2d_73">
     <path d="M 986.15327 119.897937 
L 999.15327 119.897937 
L 1012.15327 119.897937 
" style="fill: none; stroke: #e69f00; stroke-width: 2.8; stroke-linecap: square"/>
    </g>
    <g id="text_66">
     <!-- CMRO2 -->
     <g transform="translate(1022.55327 124.447937) scale(0.13 -0.13)">
      <use xlink:href="#LiberationSans-43"/>
      <use xlink:href="#LiberationSans-4d" transform="translate(72.216797 0)"/>
      <use xlink:href="#LiberationSans-52" transform="translate(155.517578 0)"/>
      <use xlink:href="#LiberationSans-4f" transform="translate(227.734375 0)"/>
      <use xlink:href="#LiberationSans-32" transform="translate(305.517578 0)"/>
     </g>
    </g>
    <g id="line2d_74">
     <path d="M 986.15327 138.516375 
L 999.15327 138.516375 
L 1012.15327 138.516375 
" style="fill: none; stroke: #000000; stroke-width: 2.8; stroke-linecap: square"/>
    </g>
    <g id="text_67">
     <!-- BOLD -->
     <g transform="translate(1022.55327 143.066375) scale(0.13 -0.13)">
      <defs>
       <path id="LiberationSans-4c" d="M 525 0 
L 525 4403 
L 1122 4403 
L 1122 488 
L 3347 488 
L 3347 0 
L 525 0 
z
" transform="scale(0.015625)"/>
      </defs>
      <use xlink:href="#LiberationSans-42"/>
      <use xlink:href="#LiberationSans-4f" transform="translate(66.699219 0)"/>
      <use xlink:href="#LiberationSans-4c" transform="translate(144.482422 0)"/>
      <use xlink:href="#LiberationSans-44" transform="translate(200.097656 0)"/>
     </g>
    </g>
   </g>
  </g>
 </g>
 <defs>
  <clipPath id="p2eee3d44d2">
   <rect x="45.208594" y="28.85325" width="306.758173" height="289.448457"/>
  </clipPath>
  <clipPath id="p6fe32d9ae2">
   <rect x="397.175361" y="28.85325" width="306.758173" height="289.448457"/>
  </clipPath>
  <clipPath id="p1fb90cdc9d">
   <rect x="774.441347" y="28.85325" width="306.758173" height="289.448457"/>
  </clipPath>
 </defs>
</svg>
